<?xml version="1.0" encoding="UTF-8" standalone="no"?>
<svg
   xmlns:dc="http://purl.org/dc/elements/1.1/"
   xmlns:cc="http://creativecommons.org/ns#"
   xmlns:rdf="http://www.w3.org/1999/02/22-rdf-syntax-ns#"
   xmlns:svg="http://www.w3.org/2000/svg"
   xmlns="http://www.w3.org/2000/svg"
   xmlns:sodipodi="http://sodipodi.sourceforge.net/DTD/sodipodi-0.dtd"
   xmlns:inkscape="http://www.inkscape.org/namespaces/inkscape"
   width="82.824875mm"
   height="61.531273mm"
   viewBox="0 0 82.824875 61.531273"
   version="1.1"
   id="svg1789"
   inkscape:version="1.0.2 (e86c8708, 2021-01-15)"
   sodipodi:docname="coffee.svg">
  <defs
     id="defs1783" />
  <sodipodi:namedview
     id="base"
     pagecolor="#ffffff"
     bordercolor="#666666"
     borderopacity="1.0"
     inkscape:pageopacity="0.0"
     inkscape:pageshadow="2"
     inkscape:zoom="0.25662462"
     inkscape:cx="-525.93317"
     inkscape:cy="333.37402"
     inkscape:document-units="mm"
     inkscape:current-layer="layer1"
     inkscape:document-rotation="0"
     showgrid="false"
     inkscape:window-width="1252"
     inkscape:window-height="778"
     inkscape:window-x="0"
     inkscape:window-y="25"
     inkscape:window-maximized="0" />
  <metadata
     id="metadata1786">
    <rdf:RDF>
      <cc:Work
         rdf:about="">
        <dc:format>image/svg+xml</dc:format>
        <dc:type
           rdf:resource="http://purl.org/dc/dcmitype/StillImage" />
        <dc:title></dc:title>
      </cc:Work>
    </rdf:RDF>
  </metadata>
  <g
     inkscape:label="Layer 1"
     inkscape:groupmode="layer"
     id="layer1"
     transform="translate(-13.394111,-98.997884)">
    <path
       id="path0-1-3"
       d="m 42.086408,99.142006 c -12.280053,0.777107 -20.072716,2.315294 -24.537475,4.843784 -2.641271,1.49556 -3.638759,2.76916 -3.402988,4.34309 l 0.06886,0.4581 0.516763,-0.48792 0.517118,-0.48825 -0.518415,0.55481 -0.518416,0.55514 0.184616,1.19355 c 0.380695,2.45833 0.795823,4.54514 1.658864,8.34062 0.132421,0.5827 0.359406,1.58049 0.504008,2.21729 0.144574,0.6368 0.55645,2.55569 0.915504,4.26441 1.224075,5.82457 2.413713,9.94928 4.020104,13.93695 0.796826,1.97825 0.841424,1.83103 -0.747605,2.48256 -2.419305,0.99223 -3.156739,1.36834 -4.51658,2.30189 -3.329866,2.28551 -3.767953,5.39996 -1.103073,7.84316 2.215324,2.03074 5.064161,3.27379 13.035224,5.68656 3.337082,1.01026 11.627836,2.8629 14.276653,3.19048 1.655913,0.20469 7.016503,0.20003 8.90819,-0.007 3.301683,-0.36267 11.892783,-2.38387 16.264739,-3.82631 0.554819,-0.18319 1.690023,-0.54858 2.522249,-0.81224 10.271297,-3.25117 12.555482,-8.36715 5.565857,-12.4663 -3.129198,-1.83526 -3.132478,-1.8648 -0.271511,-2.42352 1.263744,-0.24663 1.275552,-0.25272 1.044047,-0.52825 -0.168878,-0.20075 -0.162963,-0.20003 0.0775,0.0108 l 0.259681,0.22871 1.000772,-0.25953 c 9.369232,-2.42582 15.760106,-6.89352 17.673428,-12.35546 0.977474,-2.79146 0.979786,-6.67122 0.0039,-9.21247 -0.934528,-2.43732 -3.306586,-4.46838 -6.538094,-5.59802 -1.702157,-0.59514 -4.514601,-0.84894 -4.984471,-0.44985 -0.201034,0.17064 -0.20297,0.17028 -0.05832,-0.0143 0.205586,-0.2642 -1.9294,-0.16956 -3.331515,0.1477 -1.953658,0.442 -1.904482,0.4748 -1.723476,-1.14606 0.06915,-0.62138 0.218061,-1.56113 0.330516,-2.08809 0.379057,-1.77396 0.174435,-2.80193 -0.743364,-3.73548 -0.240036,-0.24412 -0.300045,-0.33302 -0.133855,-0.19716 0.221001,0.18032 0.195119,0.13156 -0.096,-0.18031 -0.40661,-0.43577 -0.592198,-0.56955 -0.348225,-0.25094 0.07406,0.0971 -0.04495,9.7e-4 -0.265273,-0.21006 -3.835524,-3.70662 -22.047682,-6.712204 -35.511133,-5.860641 m 8.777691,1.149961 c 9.471868,0.33697 19.293606,2.07924 23.609159,4.18769 4.250618,2.07627 4.879871,3.92601 1.986781,5.83802 -9.104289,6.01672 -44.745276,6.71517 -57.138755,1.11913 -4.561823,-2.05956 -5.173045,-3.94863 -1.953338,-6.03575 0.33281,-0.21545 1.12669,-0.89648 1.764783,-1.51328 1.158491,-1.12013 1.158813,-1.12046 0.203973,-0.13801 -0.525965,0.54101 -0.921745,0.98373 -0.879452,0.98373 0.0423,0 0.299723,-0.11292 0.571872,-0.25057 5.521911,-2.79835 19.449686,-4.631674 31.834991,-4.19096 m -7.314903,0.90666 c -2.173343,0.076 -4.72806,0.25416 -5.23238,0.36464 -0.234766,0.0513 -0.235447,0.0556 -0.05112,0.2746 0.182321,0.21687 0.180672,0.21652 -0.07313,-0.007 l -0.260003,-0.22907 -1.807417,0.20326 c -8.738994,0.9824 -14.509473,2.42452 -17.287485,4.32015 -0.812539,0.55449 -0.965677,0.81123 -0.965677,1.61723 0,1.57232 1.077178,2.4655 4.215223,3.49544 5.009084,1.6438 9.318081,2.21729 20.181897,2.68525 l 2.704897,0.1165 0.270507,-0.2391 c 0.255451,-0.22513 0.259717,-0.22584 0.0793,-0.0108 l -0.191499,0.22692 1.402779,-3.2e-4 c 2.080225,-6.5e-4 3.679754,-0.10826 3.600075,-0.24198 -0.04667,-0.0774 -0.02258,-0.0767 0.07901,9.7e-4 0.07994,0.0624 0.213473,0.10253 0.296747,0.0903 0.08338,-0.0143 1.286363,-0.0545 2.673742,-0.0925 7.654625,-0.20971 13.335255,-0.9909 18.13938,-2.49403 3.689591,-1.15423 5.093678,-2.59111 4.215216,-4.31327 -1.61132,-3.15837 -18.669275,-6.23378 -31.990077,-5.76754 m 7.999233,0.9657 c 1.121768,0.0853 2.99312,0.26707 4.158479,0.40332 1.165395,0.13694 2.777044,0.3169 3.581711,0.40071 1.349329,0.14052 5.157963,0.76334 5.819673,0.9519 l 0.284631,0.081 -0.252476,0.0577 c -0.138766,0.0323 -0.665323,0.0771 -1.169976,0.10037 -1.6205,0.0756 -1.631656,0.28643 -0.02796,0.52302 1.893993,0.27997 3.147899,0.57184 4.427057,1.03059 1.600515,0.57381 1.847742,0.62468 1.80052,0.37052 -0.02258,-0.12332 -0.37904,-0.36593 -1.01847,-0.69416 -1.046674,-0.53678 -1.16898,-0.65583 -0.674503,-0.65583 1.150296,0 4.830695,1.36379 5.917376,2.19306 0.792876,0.60464 0.383968,1.87329 -0.771551,2.39466 l -0.403982,0.18211 -0.922068,-0.32192 c -1.512641,-0.52825 -2.005805,-0.91024 -1.507716,-1.16763 0.388891,-0.2011 0.280366,-0.47842 -0.279397,-0.71355 -1.550969,-0.65185 -4.389313,-1.36669 -4.597875,-1.15813 -0.202325,0.20218 0.171818,0.38364 1.852004,0.89781 2.426511,0.74237 2.426171,0.74237 2.532749,0.94139 0.14461,0.2703 -0.321697,0.209 -3.238716,-0.42562 -1.256875,-0.27316 -3.424651,-0.63056 -7.592651,-1.25194 -0.901749,-0.13407 -2.411089,-0.3151 -3.354476,-0.40236 -0.943368,-0.0867 -1.919552,-0.17708 -2.169088,-0.20039 -0.360692,-0.0323 -0.505962,0.003 -0.705641,0.17602 -0.240036,0.20899 -0.243298,0.20935 -0.07406,0.007 l 0.177733,-0.2115 -1.355564,-0.0681 c -1.52869,-0.0767 -8.884567,-0.0695 -9.473821,0.007 -0.379721,0.0509 -0.381685,0.0534 -0.202647,0.26671 0.144609,0.17207 0.125969,0.16669 -0.09381,-0.0287 -0.543007,-0.47971 -6.871578,0.0828 -12.436456,1.10504 -0.610236,0.11221 -1.609032,0.29539 -2.219591,0.40759 -2.600945,0.4771 -3.036076,0.59647 -5.463877,1.50213 -1.617227,0.60303 -2.077938,0.62662 -2.66193,0.13515 -1.648719,-1.38738 -0.212828,-2.7482 4.183401,-3.9644 2.205814,-0.6102 2.396997,-0.34773 0.32987,0.45351 -2.863602,1.10995 -3.109191,1.27947 -1.940874,1.34049 0.48431,0.0251 0.624653,-0.007 0.813865,-0.18426 0.303307,-0.28499 0.902395,-0.2581 0.614817,0.0287 -0.09772,0.0975 -0.286925,0.17673 -0.420038,0.17673 -0.323634,0 -0.622037,0.52104 -0.402674,0.70304 0.09503,0.0789 0.202647,0.0864 0.324959,0.0215 0.713524,-0.3735 3.547935,-1.22603 4.59723,-1.38311 0.391185,-0.0584 0.479395,-0.10934 0.479395,-0.27675 0,-0.20971 -1.242765,-0.21186 -2.572737,-0.004 -0.541709,0.0846 -0.32625,-0.2176 0.269217,-0.37809 0.505639,-0.13622 0.789926,-0.42071 0.789926,-0.79026 0,-0.42265 0.07671,-0.45577 2.068435,-0.90139 1.946441,-0.43516 3.064263,-0.60633 6.003281,-0.91946 1.026331,-0.10934 2.93343,-0.31331 4.23752,-0.45383 1.304061,-0.14017 2.824897,-0.29539 3.379705,-0.3445 1.732327,-0.15343 7.132919,-0.13156 9.36136,0.0376 m -22.389017,2.27533 c -0.417751,0.12116 -0.637132,0.37414 -0.435148,0.50169 0.215122,0.13622 0.629253,0.11399 1.033891,-0.0549 0.854524,-0.35704 0.36136,-0.72531 -0.598743,-0.44695 m 31.188676,0.78797 -0.403649,0.0699 0.683677,0.22011 c 0.941744,0.30291 1.828072,0.44462 2.54488,0.40626 l 0.605625,-0.0323 -0.454137,-0.21043 c -0.824354,-0.38199 -2.189091,-0.58991 -2.976396,-0.45315 m -35.710489,0.97223 c -0.107543,0.0814 -0.377427,0.14769 -0.599424,0.14769 -0.37643,0 -0.390525,-0.0108 -0.207559,-0.14769 0.107543,-0.0817 0.377416,-0.14806 0.599403,-0.14806 0.37643,0 0.390202,0.0108 0.207558,0.14806 m 23.552763,4.71824 c 0,0.0179 -0.192825,0.20935 -0.4289,0.42823 -0.23577,0.21903 -0.350196,0.31009 -0.254124,0.20254 0.165258,-0.18533 0.165258,-0.20612 0,-0.403 -0.171819,-0.20397 -0.171173,-0.20469 0.03606,-0.0287 0.202002,0.17027 0.218385,0.1692 0.394146,-0.0251 0.170492,-0.18856 0.252834,-0.24448 0.252834,-0.17243 m -31.361171,0.60666 c 2.660611,1.56443 5.862945,2.53339 11.888854,3.59843 3.969941,0.70136 13.644467,1.45685 14.097941,1.10109 0.161996,-0.12726 0.16558,-0.12403 0.04001,0.0366 -0.131454,0.16741 0.04628,0.17673 3.439736,0.17673 4.781182,0 6.376434,-0.0756 6.208879,-0.29324 -0.09152,-0.11937 -0.06915,-0.11471 0.08621,0.0179 0.397107,0.33732 7.520842,-0.22764 11.893769,-0.94305 5.645231,-0.92405 10.852679,-2.54848 12.499745,-3.89976 0.660735,-0.54202 1.037817,-0.061 0.862389,1.10109 -0.09446,0.62565 -1.119471,5.31436 -1.805119,8.25534 -0.109802,0.47154 -0.362328,1.56117 -0.560375,2.42126 -0.413508,1.79232 -0.577773,2.4911 -1.162427,4.9438 -2.3419,9.82568 -5.209101,15.67126 -9.0774,18.50599 -4.979578,3.64894 -7.810372,4.55657 -15.316774,4.91103 -6.763687,0.31904 -13.693965,-0.43053 -16.351977,-1.76937 -1.158473,-0.58335 -1.173895,-0.89616 -0.03334,-0.67613 1.544442,0.29754 3.706655,0.38691 4.754971,0.19645 l 0.663997,-0.12045 -0.403319,-0.0746 c -0.222005,-0.0405 -1.070607,-0.12224 -1.885798,-0.18139 -3.952552,-0.28607 -7.436542,-1.28012 -8.07072,-2.30286 l -0.203293,-0.32801 h 0.360374 c 0.198022,0 0.963049,0.16347 1.699866,0.36397 1.406375,0.38199 2.30417,0.51416 2.745208,0.40332 0.440698,-0.11041 0.166262,-0.42989 -0.472175,-0.54958 -0.291514,-0.0545 -0.958145,-0.17709 -1.481805,-0.27209 -1.259485,-0.22906 -3.345618,-0.94763 -4.58216,-1.57787 -0.532177,-0.27137 -1.215521,-0.91978 -1.524087,-1.44638 -0.539086,-0.91979 -0.262011,-0.96832 1.493595,-0.26205 3.285938,1.32178 9.34792,2.41076 9.34792,1.67954 0,-0.26564 -0.296424,-0.33948 -2.219583,-0.55417 -3.538432,-0.39479 -5.303538,-0.86207 -7.788075,-2.06286 -2.933111,-1.41753 -3.704349,-2.81767 -0.93911,-1.70574 2.784235,1.11945 6.496446,2.08314 6.634829,1.72248 0.102632,-0.26778 -0.07578,-0.3679 -1.038157,-0.58041 -2.94655,-0.65056 -7.317531,-2.24482 -8.001871,-2.91865 -0.312162,-0.30757 -0.7004,-1.33034 -0.602357,-1.58644 0.09181,-0.23875 0.606949,-0.13443 1.950038,0.39483 3.08495,1.21552 6.792569,1.99037 9.522706,1.99037 1.516879,0 1.597224,-0.32622 0.11077,-0.45122 -4.451316,-0.37314 -8.160576,-1.31356 -11.14254,-2.82455 -1.060458,-0.53742 -1.715274,-1.51198 -1.432618,-2.13236 0.156403,-0.34342 0.376429,-0.30901 1.605752,0.25057 1.847412,0.8411 3.477426,1.4028 5.268772,1.81594 1.604114,0.36988 4.436227,0.92011 4.734957,0.92011 0.672855,0 0.441687,-0.46169 -0.278716,-0.55647 -2.870821,-0.37805 -5.229433,-0.9932 -8.138924,-2.12251 -1.005367,-0.3902 -1.462465,-0.61909 -3.010835,-1.50772 -0.509888,-0.29215 -1.103393,-0.99387 -1.053551,-1.24538 0.07722,-0.39053 0.328545,-0.3488 2.052358,0.33983 3.768939,1.50572 8.111371,2.58946 7.997279,1.99561 -0.0337,-0.17494 -0.06858,-0.18569 -2.756701,-0.84238 -1.781191,-0.43512 -3.953229,-1.16373 -5.251723,-1.76149 -0.169524,-0.0778 -0.62303,-0.28284 -1.008318,-0.4558 -1.421796,-0.63809 -2.225161,-1.80773 -1.598536,-2.32777 0.181354,-0.15057 -0.07342,-0.23122 3.16724,1.00108 3.070816,1.16799 4.540167,1.53851 4.540167,1.14505 0,-0.21724 -0.219675,-0.30471 -1.916935,-0.76567 -1.070937,-0.29037 -4.165369,-1.52214 -5.296971,-2.10778 -0.720413,-0.37282 -1.261126,-0.92207 -1.261126,-1.2808 0,-0.49183 0.285921,-0.47219 1.538523,0.10647 2.664891,1.23061 7.887771,2.81605 8.500936,2.5806 0.465967,-0.17888 -0.118656,-0.46724 -1.645091,-0.81188 -4.449337,-1.00438 -9.763694,-3.55842 -8.552754,-4.1103 0.19218,-0.0875 0.491859,0.0108 1.833338,0.59909 3.22132,1.41391 6.581696,2.32483 9.932881,2.69342 0.752225,0.0828 1.511978,0.17888 1.688391,0.21437 0.247565,0.0495 0.336073,0.0251 0.386589,-0.10647 0.117402,-0.30578 -0.123997,-0.38232 -2.111373,-0.6686 -6.199035,-0.89321 -12.378741,-3.17772 -12.378741,-4.57624 0,-0.382 0.245592,-0.37544 1.029614,0.0287 2.317322,1.19097 4.166377,1.78185 4.166377,1.33132 0,-0.18785 -0.314779,-0.34486 -1.254574,-0.6263 -1.200791,-0.35973 -3.375776,-1.55231 -4.167011,-2.28486 -0.490224,-0.45412 -0.501703,-1.39656 -0.01577,-1.30375 0.211179,0.0405 0.226594,0.0251 0.116111,-0.11614 -0.0699,-0.0896 0.04893,-0.0108 0.263624,0.17278 1.228003,1.05486 6.596461,2.86854 7.856609,2.65374 0.684656,-0.11651 0.267245,-0.30112 -1.973664,-0.87157 -2.404866,-0.61285 -2.746535,-0.73025 -4.125374,-1.4205 -2.242544,-1.12207 -3.064926,-1.87394 -3.181672,-2.90786 -0.07671,-0.68204 0.0755,-0.66135 2.139256,0.2875 2.037943,0.93717 2.582251,1.10669 2.568489,0.79912 -0.0057,-0.1416 -0.554166,-0.4571 -2.228452,-1.28342 -2.816702,-1.38968 -3.231177,-1.75726 -3.042618,-2.69966 0.08102,-0.40397 0.294453,-0.37611 1.220776,0.16096 2.207793,1.27947 6.939782,2.67503 5.897714,1.73918 -0.09575,-0.086 -0.764353,-0.33804 -1.485741,-0.56004 -2.994436,-0.92176 -4.050617,-1.43624 -5.212377,-2.53899 -0.793199,-0.75287 -1.08767,-1.30342 -0.832893,-1.55787 0.217093,-0.21688 0.234121,-0.21258 1.067667,0.27746 m 69.263056,1.91893 c 0.03735,0.0369 0.167875,0.0678 0.29051,0.0678 0.986027,0 3.590891,1.00277 4.982202,1.91793 5.045144,3.31939 5.208111,11.38749 0.332488,16.46052 -3.257741,3.38922 -10.305744,6.84268 -15.955545,7.81756 -0.142961,0.0251 -1.006984,0.22584 -1.920201,0.44759 -2.448468,0.5935 -2.564865,0.51679 -1.776911,-1.16964 0.524969,-1.12307 0.653174,-1.20767 1.704108,-1.12339 1.246045,0.0997 1.39852,-0.10253 0.34593,-0.45939 -0.69451,-0.23516 -0.882721,-0.33984 -0.882721,-0.49054 0,-0.29467 0.401032,-0.33446 1.016182,-0.10073 0.652529,0.24806 1.327355,0.27208 1.508028,0.0545 0.147907,-0.17852 0.108547,-0.24018 -0.18985,-0.2979 -0.118369,-0.0215 -0.316428,-0.1122 -0.439729,-0.19824 -0.294131,-0.20612 -0.149199,-0.20684 1.081758,-0.004 1.478866,0.24305 2.971482,0.12547 4.619861,-0.36396 0.77287,-0.22907 0.999793,-0.19752 1.164076,0.16275 0.142638,0.31331 0.537099,0.3323 1.001083,0.0498 0.383324,-0.23372 0.392504,-0.27244 0.131454,-0.55054 l -0.196732,-0.20936 1.347351,-0.83091 c 2.356002,-1.45294 4.156862,-2.95181 5.220905,-4.34539 0.665656,-0.87192 0.877158,-1.03094 1.276871,-0.95979 0.232508,0.0412 0.366593,0.0179 0.427258,-0.0789 0.139304,-0.21975 0.105858,-0.49251 -0.06005,-0.49251 -0.255451,0 -0.178378,-0.65809 0.154109,-1.31719 0.959776,-1.90122 1.261446,-4.08342 0.807621,-5.84623 -0.30657,-1.19193 -0.345608,-1.49524 -0.213796,-1.6543 0.185583,-0.22369 0.0903,-0.75122 -0.18035,-0.99682 -0.135791,-0.12367 -0.214118,-0.1674 -0.174112,-0.0986 0.03965,0.0695 0.0276,0.12619 -0.0276,0.12619 -0.0551,0 -0.114426,0.11973 -0.132135,0.26635 l -0.0319,0.26634 -0.560376,-0.45741 c -3.222,-2.63047 -7.973017,-2.48224 -12.523354,0.3902 -0.475467,0.30005 -0.6486,0.30363 -0.724024,0.0143 -0.05607,-0.21509 -0.08195,-0.20433 -0.541369,0.22692 l -0.482345,0.45282 0.479073,-0.50792 c 0.263624,-0.27926 0.479388,-0.58335 0.479388,-0.67613 0,-0.27101 0.272514,-1.2395 0.440392,-1.56414 0.19935,-0.38526 0.49186,-0.57152 1.316537,-0.83812 0.94995,-0.30686 1.203741,-0.59808 0.714825,-0.82073 -0.62826,-0.28643 0.753196,-0.9424 2.401252,-1.14046 0.456109,-0.0549 0.575141,-0.11758 0.575141,-0.30435 0,-0.25882 -0.215086,-0.27495 -0.485948,-0.0358 -0.256742,0.22656 -0.260362,0.22692 -0.07779,0.0108 0.263947,-0.31295 0.167875,-0.30578 -1.688392,0.13048 -1.556554,0.36561 -1.887418,0.39447 -1.9612,0.171 -0.204296,-0.62042 6.841093,-1.66707 7.407702,-1.10046 m -12.224291,0.53711 c -1.235546,0.47383 -3.577775,1.19753 -5.044814,1.55855 -2.844918,0.70039 -2.880658,0.71516 -2.121558,0.87712 0.687631,0.14662 1.099145,0.0452 5.860325,-1.44079 2.443868,-0.76273 2.768835,-0.91781 2.768835,-1.32113 0,-0.12798 -0.666302,0.0215 -1.462788,0.32621 m 10.899238,0.071 c -0.320049,0.23409 -0.124965,0.46857 0.389546,0.46857 0.546613,0 0.767948,-0.0764 0.767948,-0.26528 0,-0.29861 -0.827946,-0.44401 -1.157494,-0.20325 m -5.386507,1.78378 c -0.255738,0.21294 -0.485952,0.24807 -0.70795,0.10719 -0.248855,-0.15738 -0.01111,-0.3126 0.472849,-0.30937 l 0.473165,0.004 -0.238064,0.19824 m -7.379171,0.4063 c -1.082082,0.27208 -2.376317,0.56758 -2.875726,0.65712 -0.920756,0.16455 -1.160122,0.26743 -1.160122,0.4984 0,0.24484 0.29051,0.23551 1.579515,-0.0509 3.956499,-0.87909 5.034655,-1.19258 4.953334,-1.44079 -0.07342,-0.22297 -0.501703,-0.16526 -2.497001,0.33589 m -45.350246,0.39479 c -0.304957,0.49352 6.85878,1.83071 9.734506,1.81695 1.279487,-0.007 0.335463,-0.56009 -1.098812,-0.64501 -1.931686,-0.114 -4.219481,-0.44921 -6.619407,-0.96993 -1.368691,-0.29682 -1.923499,-0.35239 -2.016287,-0.20219 m 47.457367,0.45122 c -0.205586,0.20577 -4.444429,1.12867 -5.642596,1.22864 -0.957804,0.0799 -1.661825,0.48596 -1.169625,0.67452 0.700723,0.26921 7.176854,-1.26016 7.176854,-1.6946 0,-0.18605 -0.246274,-0.32693 -0.364633,-0.20863 m -57.750316,0.56037 c 0.216735,0.2219 0.371526,0.40368 0.343636,0.40368 -0.0276,0 -0.227561,-0.18175 -0.444322,-0.40368 -0.216735,-0.2219 -0.371508,-0.40365 -0.343636,-0.40365 0.0276,0 0.227561,0.18175 0.444311,0.40365 m 40.811716,-0.0323 c -0.722041,0.11363 -2.467473,0.34664 -2.987864,0.39841 -1.455246,0.14518 -2.581602,0.32155 -2.679639,0.41942 -0.497767,0.49774 6.118701,9.3e-4 6.753198,-0.50696 0.33808,-0.27065 -0.25839,-0.44136 -1.085695,-0.3108 m -12.712555,0.27172 -0.454148,0.13121 0.403653,0.0645 c 1.641822,0.26313 5.474718,0.11364 5.160251,-0.20074 -0.128228,-0.12798 -4.665101,-0.12368 -5.109756,0.004 m -26.737044,1.14505 c 0,0.0756 -0.09059,-0.004 -0.508579,-0.44989 l -0.449878,-0.47907 0.479384,0.44953 c 0.263302,0.24771 0.479073,0.46305 0.479073,0.47943 m 21.59124,-0.6263 c 0,0.14662 0.8837,0.20541 2.94688,0.19573 0.518756,-9.3e-4 0.712871,-0.10324 0.480714,-0.25022 -0.271833,-0.17206 -3.427594,-0.12188 -3.427594,0.0545 m 47.967921,0.0549 c 5.25599,1.37688 5.251068,7.29591 -0.01004,12.55681 -3.667953,3.66729 -9.670249,5.46685 -12.615157,3.78208 -0.803695,-0.45975 -0.853222,-0.7414 -0.399068,-2.27468 0.659416,-2.22485 1.280474,-4.77757 1.937602,-7.96451 0.606615,-2.94162 1.046979,-3.47744 4.028943,-4.90382 2.632445,-1.25915 5.172704,-1.68968 7.058173,-1.19588 m -64.312669,-0.0108 c 0,0.35908 1.076174,0.68598 1.86644,0.56761 0.571531,-0.0853 0.510544,-0.1796 -0.295779,-0.4571 -0.60958,-0.2097 -1.570668,-0.2771 -1.570668,-0.11041 m 5.889494,0.4581 c -0.44562,0.32622 0.692205,0.57844 4.351311,0.96506 1.054206,0.11148 2.302868,0.24663 2.774398,0.30076 1.802485,0.20577 2.919991,0.10396 2.633725,-0.24054 -0.150488,-0.18175 -0.410528,-0.21688 -2.68389,-0.36496 -0.943386,-0.0617 -2.305503,-0.2029 -3.026903,-0.31439 -2.098898,-0.32442 -3.870575,-0.47545 -4.048641,-0.34557 m 28.555947,0.45709 c -1.085043,0.15917 -1.631333,0.45022 -0.917494,0.48893 0.232508,0.0143 0.500395,0.0462 0.595147,0.0753 0.578755,0.17601 2.097942,-0.24627 2.097942,-0.58303 0,-0.0979 -1.056512,-0.0864 -1.775613,0.0179 m 15.295154,0.0703 c -1.576253,0.0746 -5.878367,0.62927 -6.025919,0.77682 -0.112741,0.11292 1.806097,0.15773 2.797351,0.0656 1.778241,-0.16562 3.934865,-0.61905 3.934865,-0.82729 0,-0.047 -0.01111,-0.0764 -0.02545,-0.0656 -0.01398,0.0108 -0.320371,0.0323 -0.681049,0.0505 m -20.834463,0.62404 c -0.213114,0.0455 -0.302662,0.12403 -0.302662,0.26563 0,0.27818 0.416776,0.29861 1.362117,0.0678 l 0.75649,-0.18533 -0.403337,-0.11758 c -0.429885,-0.12511 -0.919114,-0.13586 -1.412622,-0.0287 m 3.026903,0.98961 c -0.516433,0.0914 -2.050074,0.16777 -4.258172,0.2133 -3.341341,0.0685 -4.25981,0.1692 -3.435126,0.37611 0.435446,0.10934 8.060895,-0.007 8.449778,-0.1312 0.194474,-0.0609 0.546301,-0.16096 0.782054,-0.2219 1.271289,-0.3298 0.05388,-0.51646 -1.538534,-0.23624 m 18.413185,-9.3e-4 c -1.497872,0.38691 -3.923719,0.84174 -6.356442,1.19194 -1.820523,0.2624 -2.355024,0.40103 -2.291412,0.59514 0.181999,0.5545 8.883295,-0.97355 9.289883,-1.63136 0.143642,-0.23229 -0.109228,-0.29359 -0.642029,-0.15557 m 19.536585,0.2857 c -0.03513,0.0914 -0.0068,0.2642 0.06177,0.38529 0.122599,0.21545 0.125539,0.21401 0.158698,-0.0703 0.03936,-0.33625 -0.123281,-0.56826 -0.220356,-0.3151 m -59.983343,0.0359 c -0.694166,0.20003 0.88503,0.58367 2.831794,0.68827 1.082099,0.0584 1.2126,0.0466 1.411307,-0.12797 0.120628,-0.10539 0.187878,-0.13873 0.149843,-0.0735 -0.166261,0.28571 2.63897,0.30184 3.338721,0.0215 0.711563,-0.28678 0.237742,-0.37511 -2.372058,-0.44168 -1.039781,-0.0251 -2.617013,-0.0677 -3.504979,-0.0914 -0.887647,-0.0251 -1.722483,-0.0108 -1.854632,0.0251 m 60.184682,1.33554 c -0.177088,0.88501 0.0086,1.42574 0.287893,0.8378 0.137082,-0.28893 0.158375,-0.46168 0.09048,-0.7309 -0.115717,-0.45874 -0.297752,-0.51022 -0.378413,-0.10682 m -39.311557,0.30363 c -2.92721,0.22799 -3.706959,0.3556 -4.031911,0.65941 -0.229211,0.21402 1.647389,0.17888 3.477103,-0.0656 2.146142,-0.28642 2.169085,-0.2918 2.169085,-0.51384 0,-0.21365 0.06069,-0.21042 -1.614277,-0.0799 m 18.009537,0.16024 c -1.630337,0.36791 -2.634718,0.83912 -1.789375,0.83912 0.317073,0 2.876711,-0.54857 3.044923,-0.65221 0.329548,-0.20397 -0.580399,-0.33948 -1.255548,-0.18677 m -35.157986,0.43122 c -0.201321,0.12726 0.270184,0.30685 0.805667,0.30685 0.483324,0 0.97191,-0.19859 0.782706,-0.31868 -0.177088,-0.11257 -1.406392,-0.10325 -1.588373,0.0108 m 31.03819,0.57582 c -0.145578,0.14554 -0.06298,0.43742 0.123997,0.43742 0.198381,0 0.356111,-0.25273 0.257387,-0.41283 -0.0665,-0.10718 -0.284595,-0.12152 -0.381341,-0.0251 m 25.276884,0.19394 c -0.07474,0.17708 -0.117688,0.56926 -0.09941,0.90798 0.03155,0.58074 0.03549,0.58859 0.161351,0.30112 0.07209,-0.16561 0.115716,-0.56463 0.09937,-0.90798 -0.02904,-0.60497 -0.03155,-0.60891 -0.161315,-0.30112 m -40.427748,0.64336 c -0.277425,0.0402 -0.995857,0.13622 -1.596238,0.21257 -1.314905,0.16741 -1.138165,0.26743 0.637771,0.36103 1.715926,0.0907 2.911462,-0.13228 2.790135,-0.51976 -0.03843,-0.12224 -1.136839,-0.1545 -1.831668,-0.0538 m 19.825801,0.0638 c -1.472947,0.36891 -2.927873,0.61385 -4.187354,0.70466 -0.8414,0.0606 -2.027766,0.27065 -2.13465,0.37744 -0.09869,0.0986 1.623784,0.1864 2.41238,0.12295 1.660194,-0.13335 4.304748,-0.68727 4.64413,-0.97255 0.203973,-0.17135 0.117114,-0.42823 -0.129196,-0.38102 -0.02796,0.004 -0.300368,0.0721 -0.605306,0.14841 m -21.085619,1.38838 c -1.388676,0.22046 -1.729366,0.39838 -1.243418,0.64988 0.278394,0.14411 2.870152,-0.25559 3.03641,-0.46792 0.13511,-0.17242 -0.07342,-0.43512 -0.325282,-0.4092 -0.05901,0.007 -0.719425,0.10826 -1.467714,0.22728 m 41.303587,-0.12905 c -0.189886,0.24197 -0.252153,0.89974 -0.08517,0.89974 0.167552,0 0.277389,-0.36232 0.230536,-0.76137 -0.02689,-0.22728 -0.05481,-0.2538 -0.145255,-0.13837 m -21.025265,0.78563 c -0.149198,0.0885 -1.048317,0.20183 -3.329551,0.41842 -1.827087,0.17422 -2.897041,0.40235 -2.668174,0.56991 0.333168,0.2434 3.261687,0.0878 4.788072,-0.25452 0.249213,-0.0559 0.736488,-0.1563 1.083089,-0.22298 0.612835,-0.11829 1.042728,-0.32155 0.926312,-0.43809 -0.112454,-0.11256 -0.650546,-0.16132 -0.799748,-0.0728 m 20.550785,0.52104 c -0.191499,0.27388 -0.221969,0.50105 -0.06696,0.50105 0.118656,0 0.324315,-0.48301 0.272156,-0.63942 -0.01936,-0.0577 -0.111486,0.004 -0.205264,0.13837 m -0.527596,0.81024 c -0.03642,0.0591 -0.0423,0.13227 -0.01255,0.16167 0.07209,0.072 0.268893,-0.0552 0.268893,-0.17422 0,-0.12905 -0.174112,-0.12045 -0.256418,0.0143 m -0.762381,0.60496 c -0.195765,0.12117 -0.243299,0.0251 -0.08396,-0.16633 0.09743,-0.11722 0.148875,-0.12905 0.178055,-0.0412 0.02258,0.0678 -0.01972,0.16131 -0.0941,0.2072 m -19.977939,0.64368 c -0.02474,0.0251 -1.065018,0.16239 -2.312371,0.30614 -1.247031,0.14375 -2.42617,0.30506 -2.620626,0.35847 -0.194116,0.0534 -0.452173,0.0975 -0.573492,0.0979 -0.121309,3.2e-4 -0.348225,0.0513 -0.504331,0.11256 -0.73386,0.28965 0.880427,0.38364 2.469782,0.14447 0.538437,-0.0814 1.559853,-0.21832 2.269756,-0.30507 1.306377,-0.15916 2.634076,-0.51054 2.535044,-0.67089 -0.05445,-0.0878 -1.180466,-0.12618 -1.263762,-0.043 m -41.207819,1.07096 c -0.176084,0.28498 1.147672,0.78108 2.193361,0.82206 1.267356,0.0495 0.611211,-0.49481 -0.809596,-0.67222 -0.364632,-0.0452 -0.878466,-0.14303 -1.144711,-0.21724 -0.09249,-0.0251 -0.20003,0.004 -0.239068,0.0677 m 38.50688,1.55791 c -0.911568,0.14124 -1.313586,0.42132 -0.856488,0.59712 0.241004,0.0921 2.063832,-0.24735 2.483881,-0.46269 0.575155,-0.29539 -0.184293,-0.35812 -1.627393,-0.13443 m 0.441683,1.97528 c -0.166584,0.0498 -0.915504,0.1373 -1.664775,0.1943 -1.531641,0.11614 -2.808841,0.2961 -2.876389,0.40529 -0.284954,0.46104 3.306604,0.36923 4.431975,-0.11328 1.062735,-0.45577 1.139141,-0.79582 0.109228,-0.48627 m -0.655809,1.25653 c -0.416113,0.0749 -1.687406,0.23086 -2.824908,0.34701 -3.194451,0.32514 -3.361032,0.34844 -3.402346,0.47347 -0.112741,0.33984 1.826434,0.29288 5.155662,-0.12439 2.027762,-0.25416 2.383203,-0.34234 2.383203,-0.59059 0,-0.28176 -0.229174,-0.30004 -1.311611,-0.10539 m 6.558097,0.27459 0.353172,0.22584 -0.335104,0.0323 c -0.334496,0.0323 -0.825018,-0.19753 -0.825018,-0.38694 0,-0.17494 0.443988,-0.10432 0.806979,0.12833 m 4.23752,1.00012 c -1.17948,0.20469 -1.435243,0.30434 -1.25162,0.4876 0.280365,0.28033 2.660955,-0.0108 3.019353,-0.36891 0.384955,-0.38494 -0.06033,-0.41476 -1.767733,-0.11866 m -10.492962,0.15917 c -0.526943,0.0746 -1.457855,0.20433 -2.068101,0.28893 -1.659854,0.23014 -1.765769,0.2538 -1.765769,0.39185 0,0.45415 4.658547,-9.7e-4 4.96678,-0.48595 0.206913,-0.32514 0.02008,-0.3574 -1.13291,-0.19466 m -1.815941,1.51231 c -3.082313,0.25811 -4.439518,0.48233 -4.439518,0.73384 0,0.50925 5.432414,-6.4e-4 5.957059,-0.55908 l 0.232831,-0.24807 -0.64827,0.0179 c -0.356434,0.0108 -0.852552,0.0359 -1.102095,0.0556 m -0.63154,2.09957 c -0.92993,0.17852 -2.411089,0.37808 -3.291839,0.44333 -1.89661,0.14052 -2.180914,0.20182 -2.180914,0.46824 0,0.40103 1.970391,0.29431 5.031069,-0.27244 1.731983,-0.3212 2.283841,-0.49775 2.283841,-0.73255 0,-0.24807 -0.08431,-0.24413 -1.842157,0.0936 m -43.257237,1.44868 c 0,0.0928 -0.239033,0.21258 -0.424308,0.21258 -0.06374,0 -0.05539,-0.0599 0.02079,-0.15164 0.137082,-0.1649 0.403649,-0.20577 0.403649,-0.0609 m 42.677816,-0.0215 c -0.138766,0.0251 -0.569896,0.10539 -0.958467,0.18175 -0.388238,0.0767 -1.477858,0.23301 -2.421238,0.34772 -0.943386,0.11435 -1.91957,0.23695 -2.169429,0.27208 l -0.453814,0.0635 0.302662,0.13299 c 0.848634,0.3735 5.882626,-0.13837 6.531882,-0.66433 0.396755,-0.3212 0.01111,-0.47613 -0.831581,-0.3341 m -44.89774,0.9391 c 0,0.0556 -0.09353,0.10073 -0.207559,0.10073 -0.114426,0 -0.179704,-0.0452 -0.145577,-0.10073 0.03441,-0.0556 0.12794,-0.10109 0.207881,-0.10109 0.07994,0 0.145255,0.0452 0.145255,0.10109 m -0.798118,0.34199 c -0.131883,0.15916 -0.513493,0.28427 -0.513493,0.16813 0,-0.0771 0.381029,-0.2893 0.542021,-0.30184 0.04847,-0.004 0.03549,0.0563 -0.02868,0.13335 m 4.388994,0.0384 c 0.115717,0.0961 0.432861,0.46957 0.704031,0.83027 0.469882,0.62432 1.579849,1.7769 3.298392,3.42464 0.430872,0.41282 0.993886,1.06206 1.251613,1.44276 1.452621,2.14549 3.190192,2.97837 8.357649,4.00602 1.581813,0.31438 4.882825,0.8165 5.368128,0.81618 0.155113,-3.6e-4 0.690563,0.0401 1.189972,0.0903 1.92808,0.19178 7.344087,0.0215 8.255329,-0.25739 0.177733,-0.0548 0.177733,-0.0638 6.63e-4,-0.27459 -0.167588,-0.19932 -0.16067,-0.19824 0.07901,0.0143 l 0.262334,0.23086 1.099134,-0.16204 c 6.173795,-0.91125 9.54728,-2.2655 10.759217,-4.32015 0.279719,-0.4738 0.912554,-1.22406 1.843487,-2.18481 1.616886,-1.66839 2.500274,-2.60556 2.976719,-3.15808 0.645643,-0.74893 1.219798,-0.84138 2.649136,-0.42727 2.838677,0.82275 5.435024,2.92887 5.455679,4.42544 0.02545,1.88477 -3.975839,4.08012 -9.771573,5.36092 -0.33281,0.0738 -1.347684,0.29933 -2.25499,0.50137 -3.589916,0.80008 -7.440822,1.45065 -11.214361,1.89462 -3.243297,0.38135 -12.489883,0.34808 -15.436781,-0.0556 -7.488689,-1.026 -14.505537,-2.55143 -17.555382,-3.81617 -4.917927,-2.03888 -5.933103,-3.58693 -3.77483,-5.75503 1.758883,-1.76744 5.604555,-3.33086 6.45743,-2.62556 m -5.205161,0.4158 c 0,0.10288 -0.244948,0.21293 -0.474473,0.21293 -0.126937,0 -0.132135,-0.0287 -0.02975,-0.15163 0.135791,-0.16347 0.504313,-0.20828 0.504313,-0.0613 m -0.887636,0.53545 c -0.06478,0.0649 -0.151493,0.0843 -0.192144,0.0434 -0.04108,-0.0409 -0.0086,-0.11471 0.07083,-0.16418 0.188559,-0.11651 0.273805,-0.0323 0.121309,0.12116 m 4.166688,-0.076 c -1.717558,0.51904 -4.111268,2.13265 -3.771546,2.54221 0.166584,0.20075 0.224622,0.17924 0.780724,-0.2918 0.278393,-0.23588 1.110623,-0.73646 1.849387,-1.11257 1.603788,-0.81615 1.869721,-0.99847 1.679201,-1.15193 -0.09575,-0.0771 -0.249859,-0.0728 -0.537766,0.0143 m 41.46754,-0.0358 c -0.737133,0.22476 -2.822281,0.60762 -3.884377,0.71351 -1.867408,0.18605 -2.011688,0.65354 -0.166226,0.5394 1.290966,-0.0799 3.916163,-0.60106 4.886116,-0.96993 0.610225,-0.23193 -0.153787,-0.49086 -0.835499,-0.28284 m 7.011915,-0.0287 c 0,0.0437 0.446605,0.29467 0.992555,0.55808 1.202422,0.57944 1.616582,0.96699 2.227473,2.08616 0.716456,1.31163 1.226365,1.31163 0.606623,0 -0.564322,-1.19455 -1.497872,-2.18779 -2.443876,-2.60093 -0.311839,-0.13622 -1.382775,-0.16992 -1.382775,-0.0434 m -53.183575,0.65154 c -0.125252,0.18031 -0.434798,0.55775 -0.687947,0.83912 -2.269422,2.52257 -0.941081,4.65232 4.231956,6.78497 4.021423,1.6576 14.879005,3.7896 21.187588,4.16016 2.477633,0.14554 10.032899,0.0771 11.882283,-0.1079 l 1.339156,-0.13371 -0.279684,-0.31044 -0.279397,-0.31009 0.319044,0.28786 0.319368,0.28822 0.891572,-0.11651 c 1.641159,-0.21437 5.672748,-0.91322 7.934309,-1.37522 8.94886,-1.82741 12.759781,-3.52925 14.228125,-6.35283 l 0.260362,-0.5004 0.0039,0.56041 c 0.03083,3.685 -8.235651,7.08634 -20.678345,8.50813 -3.396439,0.38823 -4.304408,0.45875 -7.421152,0.57776 -21.042652,0.80274 -39.925049,-5.34482 -35.290781,-11.48944 0.393813,-0.52238 1.771684,-1.62939 2.03334,-1.63362 l 0.233799,-0.004 -0.228206,0.32801 m 4.543451,0.76861 c -0.68762,0.27244 -1.403101,0.79614 -1.403101,1.02697 0,0.26348 0.102632,0.25021 0.807301,-0.10539 0.864683,-0.43677 1.109616,-0.41448 1.109616,0.10109 0,0.45315 0.03642,0.46792 0.595488,0.24412 0.682358,-0.27316 0.630895,-0.64003 -0.09077,-0.64956 l -0.353172,-0.004 0.40366,-0.24806 c 0.784014,-0.48169 -0.05313,-0.76732 -1.068965,-0.36465 m 48.102017,-0.12152 c -0.133425,0.13371 -0.05861,0.22333 0.441038,0.53087 0.684674,0.42139 1.359159,1.05618 1.510648,1.42247 0.134107,0.32335 0.442028,0.40462 0.542355,0.14304 0.256419,-0.66828 -2.013671,-2.57634 -2.494041,-2.09631 m -8.243201,0.48169 c -1.035196,0.25237 -1.877923,0.37514 -3.480717,0.5076 -3.084607,0.25416 -3.42891,0.29503 -3.407921,0.40497 0.156081,0.81353 8.405842,-0.22118 8.405842,-1.05421 0,-0.24842 0.135397,-0.26133 -1.517204,0.1416 m 7.316222,0.46402 c -0.05635,0.091 0.388883,0.68236 1.388343,1.84411 0.431847,0.50205 0.56891,0.19358 0.269539,-0.60662 -0.254447,-0.68139 -1.450316,-1.5736 -1.657871,-1.23749 m -33.087257,0.39414 c -0.223618,0.36135 0.982389,0.66168 2.601265,0.64791 1.200454,-0.0108 1.437211,-0.0746 1.327036,-0.36102 -0.0922,-0.24054 -3.789946,-0.51087 -3.928301,-0.28678 m -11.8082,0.32836 c -1.194872,0.85092 -1.328663,1.48084 -0.156081,0.73384 0.658426,-0.4197 1.075841,-0.47283 0.965684,-0.12367 -0.273805,0.86762 -0.138766,1.02108 0.507927,0.57614 0.710566,-0.48892 0.731214,-0.71158 0.07112,-0.76208 -0.208885,-0.0143 -0.409557,-0.0323 -0.44562,-0.0359 -0.03596,-0.003 -0.113171,-0.14232 -0.171173,-0.30865 -0.125969,-0.36102 -0.346289,-0.38397 -0.771894,-0.0807 m 18.348587,0.11471 c -0.16558,0.0925 -0.153464,0.11185 0.115143,0.18354 0.207881,0.0556 0.341701,0.0387 0.435794,-0.0552 0.177733,-0.17781 -0.27445,-0.28284 -0.550883,-0.12834 m 25.344113,-0.0437 c -0.09306,0.15092 1.447373,1.47198 1.571643,1.34802 0.07406,-0.0742 0.06915,-0.17781 -0.01649,-0.34414 -0.362657,-0.70369 -1.347684,-1.33952 -1.555257,-1.00406 m -9.439407,0.57349 c -0.611208,0.1563 -3.416109,0.33769 -5.27829,0.34163 -1.200451,9.3e-4 -1.582459,0.0885 -1.582459,0.35704 0,0.29037 1.876284,0.38759 3.783688,0.19573 4.739882,-0.47709 5.246486,-0.5604 5.246486,-0.86335 0,-0.19752 -1.438515,-0.21796 -2.169425,-0.0323 m 8.12647,0.43742 c -0.07474,0.12152 1.047327,1.3359 1.166363,1.26212 0.04979,-0.0323 0.09048,-0.16059 0.09048,-0.28857 0,-0.52105 -1.038795,-1.32572 -1.256857,-0.97355 M 26.445904,148.428 c -0.07238,0.11758 0.02151,0.30255 0.153787,0.30255 0.05047,0 0.140021,-0.0907 0.199349,-0.20146 0.117114,-0.21867 -0.220679,-0.3151 -0.353136,-0.10109 m 39.035773,0.6463 c -0.06592,0.17207 0.564652,1.16537 0.741726,1.16799 0.07958,9.7e-4 0.126255,-0.14339 0.126255,-0.39282 0,-0.54467 -0.712208,-1.18079 -0.867966,-0.77517 m 8.589476,0.19035 c -0.04334,0.0993 -0.05019,0.20935 -0.01577,0.24376 0.102632,0.10253 0.185261,-0.0412 0.138049,-0.24018 -0.04191,-0.17637 -0.04725,-0.17637 -0.122312,-0.004 m -18.264959,0.14446 c -3.577122,0.34952 -4.824476,0.78338 -2.01794,0.70172 1.714303,-0.0498 2.38881,-0.15952 2.673738,-0.43447 0.142961,-0.13801 -0.0086,-0.38103 -0.201643,-0.32191 -0.02796,0.007 -0.232186,0.0323 -0.454155,0.0548 m -10.120794,0.50958 c -0.277067,0.0287 -0.328544,0.0735 -0.302662,0.25631 0.03119,0.21975 0.03549,0.22011 2.200566,0.18569 2.192371,-0.0359 2.775055,-0.13837 2.32879,-0.41447 -0.13511,-0.0835 -3.506287,-0.10539 -4.226708,-0.0287 m -6.423983,0.22082 c -0.134107,0.2176 0.07607,0.29001 1.606748,0.55252 1.526382,0.26241 1.722136,0.24915 1.65362,-0.10969 -0.05739,-0.3022 -3.092156,-0.71448 -3.260368,-0.44265 m 23.052052,0.25596 c -0.160346,0.19286 -0.604991,0.25416 -0.604991,0.0832 0,-0.15988 0.389235,-0.3341 0.582694,-0.26025 0.0922,0.0359 0.0984,0.0857 0.02223,0.17744 m -30.570593,-6.4e-4 c 0.102632,0.12332 0.097,0.15164 -0.02975,0.15164 -0.229533,0 -0.474463,-0.1097 -0.474463,-0.21294 0,-0.14698 0.368565,-0.10217 0.504309,0.0613 m 1.463104,0.442 c 0.222005,0.10181 0.489895,0.28248 0.59581,0.40139 l 0.192144,0.21616 -0.343636,-9.7e-4 c -0.386266,-9.3e-4 -1.280144,-0.38396 -1.490989,-0.63877 -0.199708,-0.24161 0.504331,-0.22656 1.046667,0.0215 m 28.139834,0.0251 c -0.273805,0.30794 -0.932887,0.58629 -1.393265,0.58891 l -0.394138,9.3e-4 0.192143,-0.21616 c 0.273805,-0.30793 0.932887,-0.58629 1.393258,-0.58891 l 0.394146,-9.6e-4 -0.192144,0.21616 m -33.980137,-0.0323 c -0.07284,0.11758 0.318076,0.47942 0.414148,0.38335 0.08338,-0.0835 -0.08689,-0.38597 -0.247241,-0.43942 -0.06033,-0.0215 -0.135397,0.004 -0.166907,0.0559 m 8.175323,0.84794 c 0.140308,0.14017 0.120054,0.15988 -0.207235,0.19824 -0.430528,0.0502 -0.984361,-0.11328 -1.048618,-0.30936 -0.06496,-0.19824 1.044703,-0.10038 1.255868,0.11112 m 23.745899,-0.13909 c 0,0.152 -0.503986,0.31905 -0.963056,0.31905 -0.506618,0 -0.587609,-0.13479 -0.171818,-0.28642 0.342668,-0.12511 1.134892,-0.1477 1.134892,-0.0323 m -21.792901,0.51876 c 0,0.13191 -0.553822,0.2495 -1.014856,0.21544 -0.681731,-0.0506 -0.488906,-0.30829 0.232795,-0.31116 0.446286,-9.3e-4 0.782054,0.0394 0.782054,0.0957 m 19.928769,-9.7e-4 c -0.09077,0.14697 -0.75321,0.30578 -1.263438,0.30219 l -0.454141,-0.003 0.238388,-0.19859 c 0.254769,-0.21222 1.604762,-0.30471 1.479188,-0.1011 m -15.207263,0.46922 c 1.054217,0.12439 1.682161,0.14303 2.643569,0.0792 0.693843,-0.0459 1.715281,-0.0656 2.2701,-0.0437 1.654264,0.0656 3.165909,0.0581 4.237512,-0.0215 2.71145,-0.19896 4.046007,-0.20935 3.873536,-0.0287 -0.653195,0.67971 -10.750358,1.14501 -13.458206,0.62038 -0.766972,-0.14841 -2.690131,-0.44498 -3.026884,-0.46627 -0.05539,-0.004 -0.01255,-0.0731 0.09503,-0.15451 0.264269,-0.20003 1.591316,-0.19429 3.36528,0.0143 m -3.825665,5.95574 c -0.122599,0.14805 -0.112204,0.15773 0.09969,0.0907 0.306247,-0.0971 0.701705,-0.0925 4.762159,0.0584 2.746211,0.10145 4.208013,0.10037 7.728073,-0.007 4.574599,-0.14016 5.278935,-0.10037 4.161436,0.23588 -3.990274,1.20047 -12.057065,1.23717 -16.223424,0.0738 -0.409883,-0.11435 -0.795826,-0.17888 -0.857474,-0.1441 -0.06202,0.0358 -9.5e-4,-0.0566 0.132135,-0.20434 0.265596,-0.29144 0.42134,-0.37249 0.197378,-0.10252"
       stroke="none"
       fill="#000000"
       fill-rule="evenodd"
       sodipodi:nodetypes="ccccccccccscccccccccccccccccccccccccccccccccccccscccccccccsccccccccccsccccccccccccccscccsccscccccccccccscccccsccccscccsccsccsccccccccccccccscsccccccccccccsccccscccccccccccscscccccccsccccscccsccsccscscccccccscscsscccscccccscsccccccccccccccccccccscccccccsccccccccccscccscccccsccccccccsccccssccccccccsccssccccccccscccccccccccsccssscccscccccccccccccccccccccccccccccccccccccsccscscccscccccccsccccccccsccccccccsccccccccsccscccscccscccscccccccccssccccccccccsccccccccccsccccsccccccccscccccccccccccccccccccccsccccscccscccscccsccccccscsccscccccccccccscsccscccccccccccccccccccccccccccssccccccccccccccccccccccccccccccccccccccccccccscscccccccccccccsccscccccccccccsccccscccccccscscccsccsccccsccsccccsscccccccccccscccssccccccccccsccccscccccccsccccccccccccsccccccccccccscsc"
       style="stroke-width:0.327905;fill:#000000;fill-opacity:1" />
  </g>
</svg>
