<?xml version="1.0" encoding="UTF-8" standalone="no"?>
<svg
   xmlns:dc="http://purl.org/dc/elements/1.1/"
   xmlns:cc="http://creativecommons.org/ns#"
   xmlns:rdf="http://www.w3.org/1999/02/22-rdf-syntax-ns#"
   xmlns:svg="http://www.w3.org/2000/svg"
   xmlns="http://www.w3.org/2000/svg"
   xmlns:sodipodi="http://sodipodi.sourceforge.net/DTD/sodipodi-0.dtd"
   xmlns:inkscape="http://www.inkscape.org/namespaces/inkscape"
   id="splitsvg"
   width="62.9147"
   height="63.561359"
   version="1.1"
   sodipodi:docname="gitstalk_logo.svg"
   inkscape:version="1.0.2 (e86c8708, 2021-01-15)">
  <metadata
     id="metadata840">
    <rdf:RDF>
      <cc:Work
         rdf:about="">
        <dc:format>image/svg+xml</dc:format>
        <dc:type
           rdf:resource="http://purl.org/dc/dcmitype/StillImage" />
        <dc:title></dc:title>
      </cc:Work>
    </rdf:RDF>
  </metadata>
  <defs
     id="defs838" />
  <sodipodi:namedview
     pagecolor="#ffffff"
     bordercolor="#666666"
     borderopacity="1"
     objecttolerance="10"
     gridtolerance="10"
     guidetolerance="10"
     inkscape:pageopacity="0"
     inkscape:pageshadow="2"
     inkscape:window-width="1440"
     inkscape:window-height="780"
     id="namedview836"
     showgrid="false"
     inkscape:zoom="1.7416968"
     inkscape:cx="180.6059"
     inkscape:cy="12.862262"
     inkscape:window-x="0"
     inkscape:window-y="25"
     inkscape:window-maximized="1"
     inkscape:current-layer="splitsvg" />
  <g
     id="svgg"
     style="fill:#2d3848;fill-opacity:1"
     transform="translate(-41.885187,-11.066639)">
    <path
       id="path0"
       d="m 40.772,14.225 c -28.451,3.818 -35.086,43.834 -9.397,56.679 4.635,2.318 5.48,2.028 5.48,-1.88 v -2.685 h -2.876 c -3.809,0 -5.772,-1.294 -7.521,-4.955 -0.719,-1.505 -1.88,-3.111 -2.58,-3.57 -1.651,-1.082 -1.666,-2.286 -0.028,-2.286 1.675,0 3.431,1.219 4.69,3.257 2.081,3.367 8.806,4.568 8.806,1.572 0,-0.529 0.216,-1.365 0.48,-1.857 0.417,-0.78 0.185,-0.97 -1.786,-1.466 C 26.889,54.73 22.207,43.917 27.001,36.16 c 0.739,-1.195 1.011,-2.472 1.016,-4.768 0.012,-6.002 0.917,-6.495 6.622,-3.608 2.39,1.209 2.741,1.255 6.034,0.799 2.247,-0.312 4.838,-0.318 7.247,-0.019 3.542,0.439 3.897,0.393 6.397,-0.83 5.345,-2.615 7.115,-1.418 6.441,4.354 -0.216,1.849 -0.042,2.803 0.807,4.422 4.307,8.216 -0.647,19.146 -9.209,20.32 l -2.192,0.3 0.808,1.533 c 0.579,1.098 0.87,3.255 1.023,7.592 0.252,7.125 0.269,7.143 4.595,4.999 C 86.289,56.528 73.344,9.854 40.772,14.225 M 30.289,38.084 c -0.155,0.405 -0.677,0.743 -1.158,0.752 -0.798,0.013 -0.803,0.057 -0.062,0.489 0.493,0.288 0.947,1.445 1.152,2.935 0.472,3.429 1.817,4.423 5.988,4.423 4.918,0 6.517,-1.232 6.536,-5.037 0.006,-1.248 0.157,-1.351 1.972,-1.351 1.42,0 1.966,-0.205 1.966,-0.737 0,-0.543 -0.567,-0.737 -2.151,-0.737 -1.313,0 -2.39,-0.288 -2.763,-0.737 -0.474,-0.572 -1.799,-0.738 -5.904,-0.738 -4.252,0 -5.349,0.145 -5.576,0.738 m 17.978,0.027 c -2.07,1.45 -1.256,6.909 1.196,8.026 4.743,2.162 9.955,0.025 10.365,-4.25 0.171,-1.778 0.48,-2.589 1.043,-2.739 0.563,-0.15 0.49,-0.23 -0.246,-0.27 -0.575,-0.032 -1.32,-0.389 -1.657,-0.794 -0.884,-1.065 -9.172,-1.044 -10.701,0.027 m -7.481,12.566 c 0,0.745 3.986,1.281 6.127,0.824 3.386,-0.722 2.679,-1.132 -1.95,-1.132 -2.297,0 -4.177,0.139 -4.177,0.308"
       stroke="none"
       fill="#000000"
       fill-rule="evenodd"
       transform="translate(30)"
       sodipodi:nodetypes="ccscsscscsccccccccccccccccccccscssscsccccscccccsc"
       style="fill:#2d3848;fill-opacity:1" />
  </g>
</svg>
