<?xml version="1.0" encoding="UTF-8" standalone="no"?>
<svg
   xmlns:dc="http://purl.org/dc/elements/1.1/"
   xmlns:cc="http://creativecommons.org/ns#"
   xmlns:rdf="http://www.w3.org/1999/02/22-rdf-syntax-ns#"
   xmlns:svg="http://www.w3.org/2000/svg"
   xmlns="http://www.w3.org/2000/svg"
   xmlns:sodipodi="http://sodipodi.sourceforge.net/DTD/sodipodi-0.dtd"
   xmlns:inkscape="http://www.inkscape.org/namespaces/inkscape"
   id="splitsvg"
   width="370.62695"
   height="63.561359"
   version="1.1"
   sodipodi:docname="gitstalk.svg"
   inkscape:version="1.0.2 (e86c8708, 2021-01-15)">
  <metadata
     id="metadata840">
    <rdf:RDF>
      <cc:Work
         rdf:about="">
        <dc:format>image/svg+xml</dc:format>
        <dc:type
           rdf:resource="http://purl.org/dc/dcmitype/StillImage" />
        <dc:title></dc:title>
      </cc:Work>
    </rdf:RDF>
  </metadata>
  <defs
     id="defs838" />
  <sodipodi:namedview
     pagecolor="#ffffff"
     bordercolor="#666666"
     borderopacity="1"
     objecttolerance="10"
     gridtolerance="10"
     guidetolerance="10"
     inkscape:pageopacity="0"
     inkscape:pageshadow="2"
     inkscape:window-width="1440"
     inkscape:window-height="780"
     id="namedview836"
     showgrid="false"
     inkscape:zoom="1.7416968"
     inkscape:cx="183.47666"
     inkscape:cy="15.158873"
     inkscape:window-x="0"
     inkscape:window-y="25"
     inkscape:window-maximized="1"
     inkscape:current-layer="splitsvg" />
  <g
     id="svgg"
     style="fill:#2d3848;fill-opacity:1"
     transform="translate(-42.45934,-11.640792)">
    <path
       id="path0"
       d="m 40.772,14.225 c -28.451,3.818 -35.086,43.834 -9.397,56.679 4.635,2.318 5.48,2.028 5.48,-1.88 v -2.685 h -2.876 c -3.809,0 -5.772,-1.294 -7.521,-4.955 -0.719,-1.505 -1.88,-3.111 -2.58,-3.57 -1.651,-1.082 -1.666,-2.286 -0.028,-2.286 1.675,0 3.431,1.219 4.69,3.257 2.081,3.367 8.806,4.568 8.806,1.572 0,-0.529 0.216,-1.365 0.48,-1.857 0.417,-0.78 0.185,-0.97 -1.786,-1.466 C 26.889,54.73 22.207,43.917 27.001,36.16 c 0.739,-1.195 1.011,-2.472 1.016,-4.768 0.012,-6.002 0.917,-6.495 6.622,-3.608 2.39,1.209 2.741,1.255 6.034,0.799 2.247,-0.312 4.838,-0.318 7.247,-0.019 3.542,0.439 3.897,0.393 6.397,-0.83 5.345,-2.615 7.115,-1.418 6.441,4.354 -0.216,1.849 -0.042,2.803 0.807,4.422 4.307,8.216 -0.647,19.146 -9.209,20.32 l -2.192,0.3 0.808,1.533 c 0.579,1.098 0.87,3.255 1.023,7.592 0.252,7.125 0.269,7.143 4.595,4.999 C 86.289,56.528 73.344,9.854 40.772,14.225 m 70.039,8.86 c -9.553,1.458 -13.179,6.915 -13.23,19.913 -0.065,16.516 5.624,22.914 19.307,21.714 11.085,-0.973 18.286,-10.966 15.604,-21.653 l -0.324,-1.29 h -8.099 -8.098 v 2.703 2.702 h 4.176 4.177 v 2.18 c 0,10.538 -15.489,12.734 -18.222,2.583 -0.944,-3.504 -0.398,-16.475 0.778,-18.47 3.414,-5.797 12.663,-5.745 15.979,0.09 l 1.058,1.862 4.012,-0.142 4.012,-0.142 -0.155,-1.474 C 131.05,26.641 120.934,21.54 110.811,23.085 m 98.28,0.006 c -9.117,1.452 -13.92,8.738 -10.592,16.068 1.651,3.637 3.805,4.78 15.646,8.299 6.327,1.88 8.671,4.424 6.933,7.52 -2.598,4.629 -11.407,4.636 -15.702,0.013 L 203.135,52.58 H 199.9 c -3.756,0 -3.981,0.262 -3.025,3.519 4.02,13.697 32.118,10.696 32.118,-3.43 0,-6.424 -1.994,-8.205 -13.002,-11.613 -8.758,-2.711 -10.586,-3.86 -10.586,-6.656 0,-5.987 11.395,-7.041 14.164,-1.309 0.64,1.324 0.717,1.343 4.669,1.203 l 4.018,-0.142 -0.16,-1.474 C 227.428,26.504 217.884,21.69 209.091,23.091 m -66.749,0.824 c -0.798,0.798 -0.361,39.849 0.45,40.16 1.007,0.386 5.793,0.386 6.799,0 0.796,-0.305 1.247,-37.709 0.479,-39.71 -0.308,-0.803 -6.986,-1.191 -7.728,-0.45 m 15.698,0.443 c -0.469,1.224 -0.353,4.109 0.208,5.158 0.46,0.859 1.078,0.951 6.388,0.951 h 5.88 V 46.83 c 0,18.468 -0.207,17.543 3.931,17.543 4.139,0 3.931,0.925 3.931,-17.543 V 30.467 h 5.591 c 6.554,0 6.819,-0.162 6.599,-4.014 l -0.15,-2.62 -16.039,-0.13 c -14.304,-0.115 -16.07,-0.044 -16.339,0.655 m 76.95,2.539 0.145,3.324 6.013,0.138 6.014,0.138 0.129,16.815 0.129,16.816 2.677,0.152 c 1.472,0.083 3.185,0.024 3.808,-0.133 l 1.132,-0.284 V 47.18 30.497 l 6.02,-0.138 6.019,-0.138 v -3.194 -3.194 l -16.116,-0.13 -16.116,-0.129 0.146,3.323 m 46.92,-2.222 c -1.372,2.228 -14.692,38.229 -14.413,38.955 0.369,0.96 6.922,1.076 7.535,0.132 0.219,-0.336 0.978,-2.16 1.688,-4.054 l 1.289,-3.443 8.929,-0.134 8.928,-0.134 0.529,1.517 c 0.291,0.834 1.11,2.663 1.821,4.065 l 1.293,2.549 3.317,0.145 c 4.419,0.194 4.639,1.378 -3.953,-21.275 l -7.268,-19.165 -4.502,-0.141 c -4.235,-0.133 -4.542,-0.075 -5.193,0.983 m 32.212,19.162 0.129,20.291 h 13.759 13.759 V 60.934 57.74 l -9.944,-0.133 -9.945,-0.133 -0.129,-16.821 -0.129,-16.82 -3.814,-0.144 -3.814,-0.143 0.128,20.291 m 35.755,-0.132 v 20.158 l 1.132,0.284 c 0.623,0.157 2.336,0.216 3.808,0.133 l 2.677,-0.152 0.246,-7.975 0.245,-7.975 7.51,8.098 7.509,8.097 h 4.162 c 5.608,0 5.686,0.199 -4.493,-11.336 l -8.655,-9.806 4.846,-5.262 c 2.665,-2.894 6.339,-6.885 8.163,-8.868 4.555,-4.952 4.473,-5.514 -0.809,-5.514 h -4.125 l -6.808,7.323 c -3.745,4.027 -6.968,7.344 -7.164,7.371 -0.195,0.026 -0.416,-3.213 -0.491,-7.2 l -0.136,-7.248 -3.808,-0.144 -3.809,-0.143 v 20.159 m -59.409,-3.276 3.303,8.957 -6.658,0.137 c -3.662,0.075 -6.771,0.025 -6.908,-0.112 -0.137,-0.138 1.259,-4.344 3.102,-9.347 1.843,-5.004 3.465,-8.984 3.605,-8.844 0.139,0.139 1.739,4.283 3.556,9.209 M 30.289,38.084 c -0.155,0.405 -0.677,0.743 -1.158,0.752 -0.798,0.013 -0.803,0.057 -0.062,0.489 0.493,0.288 0.947,1.445 1.152,2.935 0.472,3.429 1.817,4.423 5.988,4.423 4.918,0 6.517,-1.232 6.536,-5.037 0.006,-1.248 0.157,-1.351 1.972,-1.351 1.42,0 1.966,-0.205 1.966,-0.737 0,-0.543 -0.567,-0.737 -2.151,-0.737 -1.313,0 -2.39,-0.288 -2.763,-0.737 -0.474,-0.572 -1.799,-0.738 -5.904,-0.738 -4.252,0 -5.349,0.145 -5.576,0.738 m 17.978,0.027 c -2.07,1.45 -1.256,6.909 1.196,8.026 4.743,2.162 9.955,0.025 10.365,-4.25 0.171,-1.778 0.48,-2.589 1.043,-2.739 0.563,-0.15 0.49,-0.23 -0.246,-0.27 -0.575,-0.032 -1.32,-0.389 -1.657,-0.794 -0.884,-1.065 -9.172,-1.044 -10.701,0.027 m -7.481,12.566 c 0,0.745 3.986,1.281 6.127,0.824 3.386,-0.722 2.679,-1.132 -1.95,-1.132 -2.297,0 -4.177,0.139 -4.177,0.308"
       stroke="none"
       fill="#000000"
       fill-rule="evenodd"
       transform="translate(30)"
       sodipodi:nodetypes="ccscsscscscccccccccccccccccccccccccccsccccccccccccccscscsccccccccccccscssscscccccccccccccccccccccccccccccccccccccccccccccccccccccccccccscccsscccccccccccccscccccscssscsccccscccccsc"
       style="fill:#2d3848;fill-opacity:1" />
  </g>
</svg>
