<?xml version="1.0" encoding="UTF-8" standalone="no"?>
<svg
   xmlns:ns1="http://www.iki.fi/pav/software/textext/"
   xmlns:dc="http://purl.org/dc/elements/1.1/"
   xmlns:cc="http://creativecommons.org/ns#"
   xmlns:rdf="http://www.w3.org/1999/02/22-rdf-syntax-ns#"
   xmlns:svg="http://www.w3.org/2000/svg"
   xmlns="http://www.w3.org/2000/svg"
   xmlns:sodipodi="http://sodipodi.sourceforge.net/DTD/sodipodi-0.dtd"
   xmlns:inkscape="http://www.inkscape.org/namespaces/inkscape"
   id="splitsvg"
   version="1.1"
   width="971.71252"
   height="98.607033"
   sodipodi:docname="logo.svg"
   inkscape:version="1.0.2 (e86c8708, 2021-01-15)">
  <metadata
     id="metadata64">
    <rdf:RDF>
      <cc:Work
         rdf:about="">
        <dc:format>image/svg+xml</dc:format>
        <dc:type
           rdf:resource="http://purl.org/dc/dcmitype/StillImage" />
        <dc:title></dc:title>
      </cc:Work>
    </rdf:RDF>
  </metadata>
  <defs
     id="defs62" />
  <sodipodi:namedview
     pagecolor="#ffffff"
     bordercolor="#666666"
     borderopacity="1"
     objecttolerance="10"
     gridtolerance="10"
     guidetolerance="10"
     inkscape:pageopacity="0"
     inkscape:pageshadow="2"
     inkscape:window-width="1440"
     inkscape:window-height="778"
     id="namedview60"
     showgrid="false"
     inkscape:zoom="0.81357812"
     inkscape:cx="513.32519"
     inkscape:cy="207.95442"
     inkscape:window-x="0"
     inkscape:window-y="25"
     inkscape:window-maximized="1"
     inkscape:current-layer="splitsvg"
     inkscape:document-rotation="0"
     inkscape:pagecheckerboard="true"
     inkscape:showpageshadow="true"
     showborder="true"
     borderlayer="false" />
  <g
     id="g2520"
     transform="translate(2.4582765,2.4582765)">
    <text
       xml:space="preserve"
       style="font-style:normal;font-variant:normal;font-weight:normal;font-stretch:normal;font-size:96px;line-height:1.25;font-family:'American Typewriter';-inkscape-font-specification:'American Typewriter';fill:#000000;fill-opacity:1;stroke:none"
       x="-9.6000004"
       y="74.294525"
       id="text70"><tspan
         sodipodi:role="line"
         id="tspan68"
         x="-9.6000004"
         y="74.294525"
         style="font-size:96px;fill:#000000"><tspan
   style="font-style:normal;font-variant:normal;font-weight:normal;font-stretch:normal;font-size:96px;font-family:STIXGeneral;-inkscape-font-specification:STIXGeneral;fill:#000000"
   id="tspan524"><tspan
   style="font-size:96px;fill:#556b8a;fill-opacity:1"
   id="tspan791">{           }</tspan> &amp;</tspan> <tspan
   style="font-style:normal;font-variant:normal;font-weight:normal;font-stretch:normal;font-size:96px;font-family:monospace;-inkscape-font-specification:monospace;fill:#000000"
   id="tspan522">praxis( )</tspan></tspan></text>
    <path
       style="fill:#000000;stroke:#000000;stroke-width:0.279;stroke-miterlimit:4;stroke-dasharray:none;stroke-opacity:1"
       d="m 876.86676,87.722344 c -5.88013,-1.68967 -11.08283,-7.919131 -9.60123,-11.496042 0.52261,-1.26169 1.11159,-1.360797 8.08658,-1.360797 3.51542,0 6.39148,-0.09403 6.39124,-0.20902 -2.4e-4,-0.114962 -0.80121,-1.058077 -1.77992,-2.095809 -1.87353,-1.986529 -3.48865,-4.734813 -4.44605,-7.565413 -0.90278,-2.669078 -1.07774,-30.759983 -0.19707,-31.640652 0.87192,-0.87192 51.51616,-0.904534 52.38695,-0.03373 0.59763,0.597619 1.00702,2.679704 0.76492,3.890195 -0.25446,1.272325 0.16578,1.42496 3.92311,1.42496 5.30329,0 7.59435,1.944839 7.59435,6.446704 0,9.073501 -3.81749,14.950308 -10.4508,16.088424 -1.0244,0.175752 -1.13413,0.281079 -1.3538,1.299363 -0.93577,4.338034 -2.36572,7.17519 -5.12571,10.169968 -0.95799,1.039472 -1.74181,1.965341 -1.74181,2.057481 0,0.09213 3.01554,0.167531 6.70119,0.167531 h 6.70119 l 0.7201,0.720106 c 2.87252,2.872522 -3.12076,10.559327 -9.5357,12.230201 -2.61942,0.682275 -46.62985,0.598389 -49.03754,-0.0935 z m 47.11679,-3.407442 c 3.79478,-0.699183 7.89492,-3.769393 7.25632,-5.433584 -0.18201,-0.474309 -58.50223,-0.592886 -59.24954,-0.120454 -1.52953,0.966906 2.96183,4.640818 6.68789,5.470647 2.06069,0.458929 42.85953,0.534035 45.30533,0.08338 z m -9.62902,-10.303461 c 3.72781,-1.439982 6.77637,-4.102229 8.42355,-7.356118 1.69601,-3.350362 1.69386,-3.329944 1.81134,-17.221733 l 0.10783,-12.751597 -23.07918,0.07126 -23.07919,0.07126 -0.0736,11.565562 c -0.0835,13.121253 0.0614,14.605044 1.7616,18.056158 1.89058,3.83733 5.77424,6.930583 10.01687,7.978235 3.21696,0.794369 21.80953,0.475837 24.11075,-0.413076 z m 16.85643,-17.232769 c 3.67421,-1.704765 6.61619,-11.41243 4.19298,-13.835636 -0.73225,-0.732261 -6.82956,-1.09319 -6.84799,-0.40537 -0.004,0.153278 -0.007,3.476634 -0.007,7.385243 0,3.908599 0.003,7.169246 0.007,7.24589 0.0173,0.324161 1.62453,0.08802 2.65501,-0.390127 z M 906.13504,28.279509 c -1.92773,-1.516352 -0.25573,-6.237599 3.58642,-10.127055 2.60791,-2.640037 3.23542,-3.666986 3.23542,-5.295074 0,-2.378069 1.47478,-3.7401842 2.99146,-2.762968 2.24296,1.445147 0.53724,6.725474 -3.41121,10.560043 -2.5135,2.44101 -3.02329,3.307449 -3.34195,5.679941 -0.32153,2.393934 -1.52062,3.1561 -3.06014,1.945113 z m -13.51154,-1.95831 c -2.20082,-2.362299 0.34718,-8.694884 5.59168,-13.89706 4.34781,-4.3127252 5.26629,-6.0379717 5.26629,-9.8919466 0,-2.72587343 2.96547,-3.32085713 3.74832,-0.7520571 0.96701,3.1731126 -1.57189,8.5848997 -6.11204,13.0280497 -4.0756,3.988554 -4.74683,5.121462 -5.14833,8.689445 -0.36784,3.268921 -1.80283,4.479886 -3.34592,2.823569 z"
       id="path2465" />
    <g
       transform="matrix(8.17522,0,0,8.17522,-3.9364682,-5.6147547)"
       ns1:version="1.3.1"
       ns1:texconverter="pdflatex"
       ns1:pdfconverter="inkscape"
       ns1:text="$\\{ \\tau h \\epsilon \\! \\circ \\! r \\gamma \\}$\n\n\n"
       ns1:preamble="default_packages.tex"
       ns1:scale="6.131432081879027"
       ns1:alignment="middle center"
       ns1:inkscapeversion="1.0.2"
       ns1:jacobian_sqrt="8.17522"
       style="fill:#556b8a;fill-opacity:1;stroke:#556b8a;stroke-width:0.0856246;stroke-miterlimit:4;stroke-dasharray:none;stroke-opacity:1"
       id="g1659">
      <defs
         id="id-1ac3c856-efb2-4fb3-8c25-eedd3e274c78">
        <g
           id="id-9df56d39-2282-49c6-afa8-8e27308acc67"
           style="fill:#556b8a;fill-opacity:1;stroke:#556b8a;stroke-width:0;stroke-opacity:1">
          <symbol
             overflow="visible"
             id="id-2645971b-61dc-4382-86a8-d78c14737553"
             style="fill:#556b8a;fill-opacity:1;stroke:#556b8a;stroke-width:0;stroke-opacity:1">
            <path
               style="fill:#556b8a;fill-opacity:1;stroke:#556b8a;stroke-width:0;stroke-opacity:1"
               d=""
               id="id-0fc7396d-5d98-4b3f-9aca-4f3821c1b014" />
          </symbol>
          <symbol
             overflow="visible"
             id="id-b9938d9b-44bb-475f-908a-df6b74e50ebe"
             style="fill:#556b8a;fill-opacity:1;stroke:#556b8a;stroke-width:0;stroke-opacity:1">
            <path
               style="fill:#556b8a;fill-opacity:1;stroke:#556b8a;stroke-width:0;stroke-opacity:1"
               d="m 2.828125,-6.15625 c 0,-0.390625 0.25,-1.03125 1.34375,-1.09375 C 4.21875,-7.265625 4.25,-7.3125 4.25,-7.359375 c 0,-0.125 -0.078125,-0.125 -0.1875,-0.125 -0.984375,0 -1.90625,0.515625 -1.90625,1.25 v 2.28125 c 0,0.390625 0,0.703125 -0.40625,1.03125 -0.34375,0.296875 -0.71875,0.3125 -0.9375,0.3125 C 0.75,-2.59375 0.71875,-2.546875 0.71875,-2.5 c 0,0.109375 0.0625,0.109375 0.15625,0.125 0.65625,0.03125 1.140625,0.390625 1.25,0.875 0.03125,0.109375 0.03125,0.140625 0.03125,0.5 v 1.96875 c 0,0.421875 0,0.734375 0.46875,1.109375 C 3.015625,2.375 3.671875,2.5 4.0625,2.5 4.171875,2.5 4.25,2.5 4.25,2.375 4.25,2.28125 4.203125,2.28125 4.09375,2.265625 3.46875,2.234375 2.984375,1.90625 2.84375,1.40625 2.828125,1.3125 2.828125,1.296875 2.828125,0.9375 v -2.09375 c 0,-0.453125 -0.09375,-0.625 -0.40625,-0.953125 C 2.21875,-2.3125 1.921875,-2.40625 1.640625,-2.5 c 0.828125,-0.21875 1.1875,-0.6875 1.1875,-1.265625 z m 0,0"
               id="id-761550ce-7fe5-45bc-8def-5af8b03a7e97" />
          </symbol>
          <symbol
             overflow="visible"
             id="id-e40d0bb2-a92d-49ca-addf-d115ddddf5fc"
             style="fill:#556b8a;fill-opacity:1;stroke:#556b8a;stroke-width:0;stroke-opacity:1">
            <path
               style="fill:#556b8a;fill-opacity:1;stroke:#556b8a;stroke-width:0;stroke-opacity:1"
               d="m 4.421875,-2.5 c 0,-1.0625 -0.890625,-1.921875 -1.921875,-1.921875 -1.078125,0 -1.953125,0.890625 -1.953125,1.921875 0,1.0625 0.875,1.9375 1.953125,1.9375 1.03125,0 1.921875,-0.859375 1.921875,-1.9375 z M 2.5,-0.953125 c -0.875,0 -1.546875,-0.703125 -1.546875,-1.546875 0,-0.828125 0.6875,-1.53125 1.546875,-1.53125 0.8125,0 1.53125,0.6875 1.53125,1.53125 0,0.859375 -0.71875,1.546875 -1.53125,1.546875 z m 0,0"
               id="id-f6a84d54-4449-4d1b-b470-fa52c3f9d678" />
          </symbol>
          <symbol
             overflow="visible"
             id="id-deb26730-e0af-4080-9713-ddd925781d06"
             style="fill:#556b8a;fill-opacity:1;stroke:#556b8a;stroke-width:0;stroke-opacity:1">
            <path
               style="fill:#556b8a;fill-opacity:1;stroke:#556b8a;stroke-width:0;stroke-opacity:1"
               d="m 2.15625,1.171875 c 0,0.390625 -0.265625,1.03125 -1.34375,1.09375 C 0.75,2.28125 0.71875,2.328125 0.71875,2.375 0.71875,2.5 0.828125,2.5 0.921875,2.5 1.890625,2.5 2.8125,2 2.828125,1.25 v -2.28125 c 0,-0.390625 0,-0.703125 0.390625,-1.03125 C 3.5625,-2.359375 3.953125,-2.375 4.171875,-2.375 4.21875,-2.390625 4.25,-2.4375 4.25,-2.5 4.25,-2.59375 4.203125,-2.59375 4.09375,-2.609375 3.4375,-2.640625 2.953125,-3 2.84375,-3.484375 2.828125,-3.59375 2.828125,-3.625 2.828125,-3.984375 v -1.96875 c 0,-0.421875 0,-0.734375 -0.484375,-1.109375 C 1.9375,-7.375 1.25,-7.484375 0.921875,-7.484375 c -0.09375,0 -0.203125,0 -0.203125,0.125 0,0.09375 0.0625,0.09375 0.15625,0.109375 0.625,0.03125 1.125,0.359375 1.25,0.859375 0.03125,0.09375 0.03125,0.109375 0.03125,0.46875 v 2.09375 c 0,0.453125 0.078125,0.625 0.390625,0.953125 0.21875,0.203125 0.5,0.296875 0.78125,0.375 -0.8125,0.234375 -1.171875,0.703125 -1.171875,1.28125 z m 0,0"
               id="id-095f2ee1-b641-494a-8e88-dffa2346f82b" />
          </symbol>
          <symbol
             overflow="visible"
             id="id-897c9349-8723-406f-8e96-38c872357a5c"
             style="fill:#556b8a;fill-opacity:1;stroke:#556b8a;stroke-width:0;stroke-opacity:1">
            <path
               style="fill:#556b8a;fill-opacity:1;stroke:#556b8a;stroke-width:0;stroke-opacity:1"
               d=""
               id="id-af0e25ce-64fc-45b4-9982-87455f10fd51" />
          </symbol>
          <symbol
             overflow="visible"
             id="id-bf2591ef-ec13-4f39-bb10-c00195ccaeec"
             style="fill:#556b8a;fill-opacity:1;stroke:#556b8a;stroke-width:0;stroke-opacity:1">
            <path
               style="fill:#556b8a;fill-opacity:1;stroke:#556b8a;stroke-width:0;stroke-opacity:1"
               d="m 2.9375,-3.71875 h 1.671875 c 0.125,0 0.484375,0 0.484375,-0.34375 0,-0.234375 -0.203125,-0.234375 -0.40625,-0.234375 H 1.90625 c -0.203125,0 -0.59375,0 -1.03125,0.46875 -0.328125,0.359375 -0.609375,0.84375 -0.609375,0.890625 0,0.015625 0,0.109375 0.125,0.109375 0.078125,0 0.09375,-0.046875 0.15625,-0.125 C 1.03125,-3.71875 1.609375,-3.71875 1.8125,-3.71875 h 0.828125 l -0.96875,3.203125 C 1.625,-0.40625 1.5625,-0.1875 1.5625,-0.15625 c 0,0.109375 0.078125,0.28125 0.296875,0.28125 0.328125,0 0.375,-0.28125 0.40625,-0.4375 z m 0,0"
               id="id-2ec702d6-6480-4117-80e8-e7db1c9dd143" />
          </symbol>
          <symbol
             overflow="visible"
             id="id-bb5a1ca2-8a13-4630-a7d3-1f852a69e226"
             style="fill:#556b8a;fill-opacity:1;stroke:#556b8a;stroke-width:0;stroke-opacity:1">
            <path
               style="fill:#556b8a;fill-opacity:1;stroke:#556b8a;stroke-width:0;stroke-opacity:1"
               d="m 2.859375,-6.8125 c 0,0 0,-0.109375 -0.125,-0.109375 -0.234375,0 -0.953125,0.078125 -1.21875,0.109375 -0.078125,0 -0.1875,0.015625 -0.1875,0.1875 0,0.125 0.09375,0.125 0.234375,0.125 0.484375,0 0.5,0.0625 0.5,0.171875 L 2.03125,-6.125 0.59375,-0.390625 c -0.046875,0.140625 -0.046875,0.15625 -0.046875,0.21875 0,0.234375 0.203125,0.28125 0.296875,0.28125 0.15625,0 0.3125,-0.125 0.359375,-0.265625 l 0.1875,-0.75 0.21875,-0.890625 C 1.671875,-2.03125 1.734375,-2.25 1.78125,-2.46875 1.796875,-2.53125 1.890625,-2.859375 1.890625,-2.921875 1.921875,-3.015625 2.234375,-3.5625 2.578125,-3.84375 2.796875,-4 3.09375,-4.1875 3.53125,-4.1875 c 0.421875,0 0.53125,0.34375 0.53125,0.703125 0,0.53125 -0.375,1.625 -0.609375,2.234375 C 3.375,-1.03125 3.3125,-0.90625 3.3125,-0.703125 c 0,0.46875 0.359375,0.8125 0.828125,0.8125 0.9375,0 1.296875,-1.453125 1.296875,-1.53125 0,-0.109375 -0.078125,-0.109375 -0.109375,-0.109375 -0.109375,0 -0.109375,0.03125 -0.15625,0.1875 -0.140625,0.53125 -0.46875,1.234375 -1.015625,1.234375 -0.171875,0 -0.234375,-0.09375 -0.234375,-0.328125 0,-0.25 0.078125,-0.484375 0.171875,-0.703125 0.15625,-0.4375 0.609375,-1.625 0.609375,-2.203125 0,-0.640625 -0.390625,-1.0625 -1.140625,-1.0625 -0.625,0 -1.109375,0.3125 -1.484375,0.765625 z m 0,0"
               id="id-1ad3f26c-6b38-4ccb-b5eb-1e9a17f59f91" />
          </symbol>
          <symbol
             overflow="visible"
             id="id-0f014879-bf6d-4432-b463-f3b4355c6032"
             style="fill:#556b8a;fill-opacity:1;stroke:#556b8a;stroke-width:0;stroke-opacity:1">
            <path
               style="fill:#556b8a;fill-opacity:1;stroke:#556b8a;stroke-width:0;stroke-opacity:1"
               d="m 2.96875,-2.25 c 0.15625,0 0.34375,0 0.34375,-0.171875 C 3.3125,-2.5625 3.1875,-2.5625 3.015625,-2.5625 H 1.40625 c 0.234375,-0.84375 0.796875,-1.421875 1.703125,-1.421875 h 0.3125 c 0.171875,0 0.328125,0 0.328125,-0.171875 0,-0.140625 -0.125,-0.140625 -0.296875,-0.140625 H 3.09375 c -1.296875,0 -2.625,1 -2.625,2.515625 0,1.109375 0.75,1.890625 1.796875,1.890625 0.65625,0 1.296875,-0.40625 1.296875,-0.515625 0,-0.015625 0,-0.125 -0.09375,-0.125 -0.015625,0 -0.046875,0 -0.125,0.046875 -0.3125,0.203125 -0.6875,0.375 -1.046875,0.375 -0.578125,0 -1.078125,-0.421875 -1.078125,-1.296875 0,-0.34375 0.078125,-0.734375 0.109375,-0.84375 z m 0,0"
               id="id-7cb6fc59-8b4b-4b4e-b3d7-02a800f9490c" />
          </symbol>
          <symbol
             overflow="visible"
             id="id-ddf7a66a-5319-43aa-95f8-775b00a39ef3"
             style="fill:#556b8a;fill-opacity:1;stroke:#556b8a;stroke-width:0;stroke-opacity:1">
            <path
               style="fill:#556b8a;fill-opacity:1;stroke:#556b8a;stroke-width:0;stroke-opacity:1"
               d="m 0.875,-0.59375 c -0.03125,0.15625 -0.09375,0.390625 -0.09375,0.4375 0,0.171875 0.140625,0.265625 0.296875,0.265625 0.125,0 0.296875,-0.078125 0.375,-0.28125 C 1.46875,-0.203125 1.796875,-1.5625 1.84375,-1.75 c 0.078125,-0.328125 0.265625,-1.015625 0.3125,-1.296875 0.046875,-0.125 0.328125,-0.59375 0.5625,-0.8125 0.078125,-0.0625 0.375,-0.328125 0.796875,-0.328125 0.265625,0 0.40625,0.125 0.421875,0.125 -0.296875,0.046875 -0.515625,0.28125 -0.515625,0.546875 0,0.15625 0.109375,0.34375 0.375,0.34375 0.265625,0 0.546875,-0.234375 0.546875,-0.59375 0,-0.34375 -0.3125,-0.640625 -0.828125,-0.640625 C 2.875,-4.40625 2.4375,-3.921875 2.25,-3.640625 2.15625,-4.09375 1.796875,-4.40625 1.328125,-4.40625 0.875,-4.40625 0.6875,-4.015625 0.59375,-3.84375 0.421875,-3.5 0.296875,-2.90625 0.296875,-2.875 c 0,0.109375 0.09375,0.109375 0.109375,0.109375 0.109375,0 0.109375,-0.015625 0.171875,-0.234375 0.171875,-0.703125 0.375,-1.1875 0.734375,-1.1875 0.15625,0 0.296875,0.078125 0.296875,0.453125 0,0.21875 -0.03125,0.328125 -0.15625,0.84375 z m 0,0"
               id="id-a52a7fef-b485-423c-b21f-56add377056a" />
          </symbol>
          <symbol
             overflow="visible"
             id="id-6221aff8-024d-4500-bae5-062da1d39f58"
             style="fill:#556b8a;fill-opacity:1;stroke:#556b8a;stroke-width:0;stroke-opacity:1">
            <path
               style="fill:#556b8a;fill-opacity:1;stroke:#556b8a;stroke-width:0;stroke-opacity:1"
               d="M 0.40625,-2.53125 C 0.796875,-3.671875 1.890625,-3.6875 2,-3.6875 c 1.5,0 1.609375,1.75 1.609375,2.53125 0,0.609375 -0.046875,0.78125 -0.125,0.984375 -0.21875,0.71875 -0.515625,1.875 -0.515625,2.140625 0,0.109375 0.046875,0.171875 0.125,0.171875 0.140625,0 0.21875,-0.21875 0.328125,-0.59375 C 3.65625,0.703125 3.75,0.140625 3.78125,-0.171875 c 0.03125,-0.125 0.046875,-0.25 0.09375,-0.390625 0.3125,-0.984375 0.953125,-2.46875 1.34375,-3.25 0.078125,-0.125 0.1875,-0.34375 0.1875,-0.390625 0,-0.09375 -0.09375,-0.09375 -0.109375,-0.09375 -0.03125,0 -0.09375,0 -0.125,0.0625 C 4.65625,-3.28125 4.25,-2.28125 3.859375,-1.28125 3.84375,-1.578125 3.84375,-2.34375 3.453125,-3.3125 3.203125,-3.921875 2.8125,-4.40625 2.125,-4.40625 c -1.25,0 -1.953125,1.515625 -1.953125,1.828125 0,0.09375 0.09375,0.09375 0.203125,0.09375 z m 0,0"
               id="id-8f4306f2-a60d-4d0f-9a58-397e872b802a" />
          </symbol>
        </g>
      </defs>
      <g
         transform="matrix(1.0770644,0,0,1.0770644,4.2913066,2.089163)"
         ns1:version="1.3.1"
         ns1:texconverter="pdflatex"
         ns1:pdfconverter="inkscape"
         ns1:text="$\\tau h \\epsilon \\! \\circ \\! r \\gamma$ \n"
         ns1:preamble="default_packages.tex"
         ns1:scale="6.131432081879027"
         ns1:alignment="middle center"
         ns1:inkscapeversion="1.0.2"
         ns1:jacobian_sqrt="8.17522"
         id="g2409"
         style="fill:#556b8a;fill-opacity:1;stroke:#556b8a;stroke-width:0.227478;stroke-miterlimit:4;stroke-dasharray:none;stroke-opacity:1">
        <defs
           id="id-188b5f69-b798-4b4e-aebb-4c8ef092cb0a">
          <g
             id="id-204914ff-ddbe-4fdc-a48a-72c016b13f88">
            <symbol
               overflow="visible"
               id="id-9e5344ab-3285-42ac-8fd5-267fef2ddd90">
              <path
                 style="stroke:none;stroke-width:0"
                 d=""
                 id="id-55ac0d39-2b2d-4e7a-8ec8-8c10eedf7ebf" />
            </symbol>
            <symbol
               overflow="visible"
               id="id-e509d8ef-7476-4753-b7e9-7b534832f884">
              <path
                 style="stroke:none;stroke-width:0"
                 d="m 2.9375,-3.71875 h 1.671875 c 0.125,0 0.484375,0 0.484375,-0.34375 0,-0.234375 -0.203125,-0.234375 -0.40625,-0.234375 H 1.90625 c -0.203125,0 -0.59375,0 -1.03125,0.46875 -0.328125,0.359375 -0.609375,0.84375 -0.609375,0.890625 0,0.015625 0,0.109375 0.125,0.109375 0.078125,0 0.09375,-0.046875 0.15625,-0.125 C 1.03125,-3.71875 1.609375,-3.71875 1.8125,-3.71875 h 0.828125 l -0.96875,3.203125 C 1.625,-0.40625 1.5625,-0.1875 1.5625,-0.15625 c 0,0.109375 0.078125,0.28125 0.296875,0.28125 0.328125,0 0.375,-0.28125 0.40625,-0.4375 z m 0,0"
                 id="id-0eac2992-632d-476e-82e9-88010939d6c0" />
            </symbol>
            <symbol
               overflow="visible"
               id="id-dcc8c536-20a4-477e-a12b-d427f7eba7e9">
              <path
                 style="stroke:none;stroke-width:0"
                 d="m 2.859375,-6.8125 c 0,0 0,-0.109375 -0.125,-0.109375 -0.234375,0 -0.953125,0.078125 -1.21875,0.109375 -0.078125,0 -0.1875,0.015625 -0.1875,0.1875 0,0.125 0.09375,0.125 0.234375,0.125 0.484375,0 0.5,0.0625 0.5,0.171875 L 2.03125,-6.125 0.59375,-0.390625 c -0.046875,0.140625 -0.046875,0.15625 -0.046875,0.21875 0,0.234375 0.203125,0.28125 0.296875,0.28125 0.15625,0 0.3125,-0.125 0.359375,-0.265625 l 0.1875,-0.75 0.21875,-0.890625 C 1.671875,-2.03125 1.734375,-2.25 1.78125,-2.46875 1.796875,-2.53125 1.890625,-2.859375 1.890625,-2.921875 1.921875,-3.015625 2.234375,-3.5625 2.578125,-3.84375 2.796875,-4 3.09375,-4.1875 3.53125,-4.1875 c 0.421875,0 0.53125,0.34375 0.53125,0.703125 0,0.53125 -0.375,1.625 -0.609375,2.234375 C 3.375,-1.03125 3.3125,-0.90625 3.3125,-0.703125 c 0,0.46875 0.359375,0.8125 0.828125,0.8125 0.9375,0 1.296875,-1.453125 1.296875,-1.53125 0,-0.109375 -0.078125,-0.109375 -0.109375,-0.109375 -0.109375,0 -0.109375,0.03125 -0.15625,0.1875 -0.140625,0.53125 -0.46875,1.234375 -1.015625,1.234375 -0.171875,0 -0.234375,-0.09375 -0.234375,-0.328125 0,-0.25 0.078125,-0.484375 0.171875,-0.703125 0.15625,-0.4375 0.609375,-1.625 0.609375,-2.203125 0,-0.640625 -0.390625,-1.0625 -1.140625,-1.0625 -0.625,0 -1.109375,0.3125 -1.484375,0.765625 z m 0,0"
                 id="id-b67f1750-4d85-4737-a20d-6a7d532635fd" />
            </symbol>
            <symbol
               overflow="visible"
               id="id-7522b96d-9880-43e6-87e0-c7ff1f45dc57">
              <path
                 style="stroke:none;stroke-width:0"
                 d="m 2.96875,-2.25 c 0.15625,0 0.34375,0 0.34375,-0.171875 C 3.3125,-2.5625 3.1875,-2.5625 3.015625,-2.5625 H 1.40625 c 0.234375,-0.84375 0.796875,-1.421875 1.703125,-1.421875 h 0.3125 c 0.171875,0 0.328125,0 0.328125,-0.171875 0,-0.140625 -0.125,-0.140625 -0.296875,-0.140625 H 3.09375 c -1.296875,0 -2.625,1 -2.625,2.515625 0,1.109375 0.75,1.890625 1.796875,1.890625 0.65625,0 1.296875,-0.40625 1.296875,-0.515625 0,-0.015625 0,-0.125 -0.09375,-0.125 -0.015625,0 -0.046875,0 -0.125,0.046875 -0.3125,0.203125 -0.6875,0.375 -1.046875,0.375 -0.578125,0 -1.078125,-0.421875 -1.078125,-1.296875 0,-0.34375 0.078125,-0.734375 0.109375,-0.84375 z m 0,0"
                 id="id-bbd32c32-babf-4537-ab5c-5b5de4c3cea3" />
            </symbol>
            <symbol
               overflow="visible"
               id="id-8482afce-d8c7-4238-b589-56b259adde83">
              <path
                 style="stroke:none;stroke-width:0"
                 d="m 0.875,-0.59375 c -0.03125,0.15625 -0.09375,0.390625 -0.09375,0.4375 0,0.171875 0.140625,0.265625 0.296875,0.265625 0.125,0 0.296875,-0.078125 0.375,-0.28125 C 1.46875,-0.203125 1.796875,-1.5625 1.84375,-1.75 c 0.078125,-0.328125 0.265625,-1.015625 0.3125,-1.296875 0.046875,-0.125 0.328125,-0.59375 0.5625,-0.8125 0.078125,-0.0625 0.375,-0.328125 0.796875,-0.328125 0.265625,0 0.40625,0.125 0.421875,0.125 -0.296875,0.046875 -0.515625,0.28125 -0.515625,0.546875 0,0.15625 0.109375,0.34375 0.375,0.34375 0.265625,0 0.546875,-0.234375 0.546875,-0.59375 0,-0.34375 -0.3125,-0.640625 -0.828125,-0.640625 C 2.875,-4.40625 2.4375,-3.921875 2.25,-3.640625 2.15625,-4.09375 1.796875,-4.40625 1.328125,-4.40625 0.875,-4.40625 0.6875,-4.015625 0.59375,-3.84375 0.421875,-3.5 0.296875,-2.90625 0.296875,-2.875 c 0,0.109375 0.09375,0.109375 0.109375,0.109375 0.109375,0 0.109375,-0.015625 0.171875,-0.234375 0.171875,-0.703125 0.375,-1.1875 0.734375,-1.1875 0.15625,0 0.296875,0.078125 0.296875,0.453125 0,0.21875 -0.03125,0.328125 -0.15625,0.84375 z m 0,0"
                 id="id-4924aa09-be8f-4638-b25a-506bf79e33ae" />
            </symbol>
            <symbol
               overflow="visible"
               id="id-1206b426-a0f2-4f91-ab3f-c4841d154ed5">
              <path
                 style="stroke:none;stroke-width:0"
                 d="M 0.40625,-2.53125 C 0.796875,-3.671875 1.890625,-3.6875 2,-3.6875 c 1.5,0 1.609375,1.75 1.609375,2.53125 0,0.609375 -0.046875,0.78125 -0.125,0.984375 -0.21875,0.71875 -0.515625,1.875 -0.515625,2.140625 0,0.109375 0.046875,0.171875 0.125,0.171875 0.140625,0 0.21875,-0.21875 0.328125,-0.59375 C 3.65625,0.703125 3.75,0.140625 3.78125,-0.171875 c 0.03125,-0.125 0.046875,-0.25 0.09375,-0.390625 0.3125,-0.984375 0.953125,-2.46875 1.34375,-3.25 0.078125,-0.125 0.1875,-0.34375 0.1875,-0.390625 0,-0.09375 -0.09375,-0.09375 -0.109375,-0.09375 -0.03125,0 -0.09375,0 -0.125,0.0625 C 4.65625,-3.28125 4.25,-2.28125 3.859375,-1.28125 3.84375,-1.578125 3.84375,-2.34375 3.453125,-3.3125 3.203125,-3.921875 2.8125,-4.40625 2.125,-4.40625 c -1.25,0 -1.953125,1.515625 -1.953125,1.828125 0,0.09375 0.09375,0.09375 0.203125,0.09375 z m 0,0"
                 id="id-74f9860f-e4ce-47fb-b436-649add32bdd2" />
            </symbol>
            <symbol
               overflow="visible"
               id="id-6cda3c91-6a30-45ba-ab72-c0171a350e96">
              <path
                 style="stroke:none;stroke-width:0"
                 d=""
                 id="id-d3a8696d-b5c3-40df-aeb1-cf9e4f8dfdb3" />
            </symbol>
            <symbol
               overflow="visible"
               id="id-ff0e7cea-7072-4378-9cba-358da0794df7">
              <path
                 style="stroke:none;stroke-width:0"
                 d="m 4.421875,-2.5 c 0,-1.0625 -0.890625,-1.921875 -1.921875,-1.921875 -1.078125,0 -1.953125,0.890625 -1.953125,1.921875 0,1.0625 0.875,1.9375 1.953125,1.9375 1.03125,0 1.921875,-0.859375 1.921875,-1.9375 z M 2.5,-0.953125 c -0.875,0 -1.546875,-0.703125 -1.546875,-1.546875 0,-0.828125 0.6875,-1.53125 1.546875,-1.53125 0.8125,0 1.53125,0.6875 1.53125,1.53125 0,0.859375 -0.71875,1.546875 -1.53125,1.546875 z m 0,0"
                 id="id-df000cd1-6ddd-4c72-8e6d-87e2f32a251b" />
            </symbol>
          </g>
        </defs>
        <g
           id="id-7750778f-fe37-494b-b13d-8091f6189417"
           transform="translate(-148.978,-127.843)"
           style="fill:#556b8a;fill-opacity:1;stroke:#556b8a;stroke-width:0.227478;stroke-miterlimit:4;stroke-dasharray:none;stroke-opacity:1">
          <g
             style="fill:#556b8a;fill-opacity:1;stroke:#556b8a;stroke-width:0.227478;stroke-miterlimit:4;stroke-dasharray:none;stroke-opacity:1"
             id="id-7027a9a3-385e-4cab-9c1e-b34f500980db">
            <g
               transform="translate(148.712,134.765)"
               id="g2386"
               style="fill:#556b8a;fill-opacity:1;stroke:#556b8a;stroke-width:0.227478;stroke-miterlimit:4;stroke-dasharray:none;stroke-opacity:1">
              <path
                 style="fill:#556b8a;fill-opacity:1;stroke:#556b8a;stroke-width:0.227478;stroke-miterlimit:4;stroke-dasharray:none;stroke-opacity:1"
                 d="m 2.9375,-3.71875 h 1.671875 c 0.125,0 0.484375,0 0.484375,-0.34375 0,-0.234375 -0.203125,-0.234375 -0.40625,-0.234375 H 1.90625 c -0.203125,0 -0.59375,0 -1.03125,0.46875 -0.328125,0.359375 -0.609375,0.84375 -0.609375,0.890625 0,0.015625 0,0.109375 0.125,0.109375 0.078125,0 0.09375,-0.046875 0.15625,-0.125 C 1.03125,-3.71875 1.609375,-3.71875 1.8125,-3.71875 h 0.828125 l -0.96875,3.203125 C 1.625,-0.40625 1.5625,-0.1875 1.5625,-0.15625 c 0,0.109375 0.078125,0.28125 0.296875,0.28125 0.328125,0 0.375,-0.28125 0.40625,-0.4375 z m 0,0"
                 id="id-31dcb1a9-1cdb-4bdb-9752-bac9db61e950" />
            </g>
          </g>
          <g
             style="fill:#556b8a;fill-opacity:1;stroke:#556b8a;stroke-width:0.227478;stroke-miterlimit:4;stroke-dasharray:none;stroke-opacity:1"
             id="id-2f755a52-08f0-4b00-8a98-47adfba70fb8">
            <g
               transform="translate(154.193,134.765)"
               id="g2390"
               style="fill:#556b8a;fill-opacity:1;stroke:#556b8a;stroke-width:0.227478;stroke-miterlimit:4;stroke-dasharray:none;stroke-opacity:1">
              <path
                 style="fill:#556b8a;fill-opacity:1;stroke:#556b8a;stroke-width:0.227478;stroke-miterlimit:4;stroke-dasharray:none;stroke-opacity:1"
                 d="m 2.859375,-6.8125 c 0,0 0,-0.109375 -0.125,-0.109375 -0.234375,0 -0.953125,0.078125 -1.21875,0.109375 -0.078125,0 -0.1875,0.015625 -0.1875,0.1875 0,0.125 0.09375,0.125 0.234375,0.125 0.484375,0 0.5,0.0625 0.5,0.171875 L 2.03125,-6.125 0.59375,-0.390625 c -0.046875,0.140625 -0.046875,0.15625 -0.046875,0.21875 0,0.234375 0.203125,0.28125 0.296875,0.28125 0.15625,0 0.3125,-0.125 0.359375,-0.265625 l 0.1875,-0.75 0.21875,-0.890625 C 1.671875,-2.03125 1.734375,-2.25 1.78125,-2.46875 1.796875,-2.53125 1.890625,-2.859375 1.890625,-2.921875 1.921875,-3.015625 2.234375,-3.5625 2.578125,-3.84375 2.796875,-4 3.09375,-4.1875 3.53125,-4.1875 c 0.421875,0 0.53125,0.34375 0.53125,0.703125 0,0.53125 -0.375,1.625 -0.609375,2.234375 C 3.375,-1.03125 3.3125,-0.90625 3.3125,-0.703125 c 0,0.46875 0.359375,0.8125 0.828125,0.8125 0.9375,0 1.296875,-1.453125 1.296875,-1.53125 0,-0.109375 -0.078125,-0.109375 -0.109375,-0.109375 -0.109375,0 -0.109375,0.03125 -0.15625,0.1875 -0.140625,0.53125 -0.46875,1.234375 -1.015625,1.234375 -0.171875,0 -0.234375,-0.09375 -0.234375,-0.328125 0,-0.25 0.078125,-0.484375 0.171875,-0.703125 0.15625,-0.4375 0.609375,-1.625 0.609375,-2.203125 0,-0.640625 -0.390625,-1.0625 -1.140625,-1.0625 -0.625,0 -1.109375,0.3125 -1.484375,0.765625 z m 0,0"
                 id="id-cdeaf087-1e1a-40c3-a355-3b3ed4aef12f" />
            </g>
            <g
               transform="translate(159.934,134.765)"
               id="g2393"
               style="fill:#556b8a;fill-opacity:1;stroke:#556b8a;stroke-width:0.227478;stroke-miterlimit:4;stroke-dasharray:none;stroke-opacity:1">
              <path
                 style="fill:#556b8a;fill-opacity:1;stroke:#556b8a;stroke-width:0.227478;stroke-miterlimit:4;stroke-dasharray:none;stroke-opacity:1"
                 d="m 2.96875,-2.25 c 0.15625,0 0.34375,0 0.34375,-0.171875 C 3.3125,-2.5625 3.1875,-2.5625 3.015625,-2.5625 H 1.40625 c 0.234375,-0.84375 0.796875,-1.421875 1.703125,-1.421875 h 0.3125 c 0.171875,0 0.328125,0 0.328125,-0.171875 0,-0.140625 -0.125,-0.140625 -0.296875,-0.140625 H 3.09375 c -1.296875,0 -2.625,1 -2.625,2.515625 0,1.109375 0.75,1.890625 1.796875,1.890625 0.65625,0 1.296875,-0.40625 1.296875,-0.515625 0,-0.015625 0,-0.125 -0.09375,-0.125 -0.015625,0 -0.046875,0 -0.125,0.046875 -0.3125,0.203125 -0.6875,0.375 -1.046875,0.375 -0.578125,0 -1.078125,-0.421875 -1.078125,-1.296875 0,-0.34375 0.078125,-0.734375 0.109375,-0.84375 z m 0,0"
                 id="id-7d1321d8-3c3d-473a-82e8-f22092e70bff" />
            </g>
          </g>
          <g
             style="fill:#556b8a;fill-opacity:1;stroke:#556b8a;stroke-width:0.227478;stroke-miterlimit:4;stroke-dasharray:none;stroke-opacity:1"
             id="id-1cf25fa4-eaed-4428-a11c-91b67f143aa0">
            <g
               transform="translate(164.533,134.765)"
               id="g2397"
               style="fill:#556b8a;fill-opacity:1;stroke:#556b8a;stroke-width:0.227478;stroke-miterlimit:4;stroke-dasharray:none;stroke-opacity:1">
              <path
                 style="fill:#556b8a;fill-opacity:1;stroke:#556b8a;stroke-width:0.227478;stroke-miterlimit:4;stroke-dasharray:none;stroke-opacity:1"
                 d="m 4.421875,-2.5 c 0,-1.0625 -0.890625,-1.921875 -1.921875,-1.921875 -1.078125,0 -1.953125,0.890625 -1.953125,1.921875 0,1.0625 0.875,1.9375 1.953125,1.9375 1.03125,0 1.921875,-0.859375 1.921875,-1.9375 z M 2.5,-0.953125 c -0.875,0 -1.546875,-0.703125 -1.546875,-1.546875 0,-0.828125 0.6875,-1.53125 1.546875,-1.53125 0.8125,0 1.53125,0.6875 1.53125,1.53125 0,0.859375 -0.71875,1.546875 -1.53125,1.546875 z m 0,0"
                 id="id-ebbd6724-c9d3-40a0-a31b-e0fc313949fb" />
            </g>
          </g>
          <g
             style="fill:#556b8a;fill-opacity:1;stroke:#556b8a;stroke-width:0.227478;stroke-miterlimit:4;stroke-dasharray:none;stroke-opacity:1"
             id="id-d12518e7-a6c4-45a8-a895-c28f558f64a4">
            <g
               transform="translate(170.067,134.765)"
               id="g2401"
               style="fill:#556b8a;fill-opacity:1;stroke:#556b8a;stroke-width:0.227478;stroke-miterlimit:4;stroke-dasharray:none;stroke-opacity:1">
              <path
                 style="fill:#556b8a;fill-opacity:1;stroke:#556b8a;stroke-width:0.227478;stroke-miterlimit:4;stroke-dasharray:none;stroke-opacity:1"
                 d="m 0.875,-0.59375 c -0.03125,0.15625 -0.09375,0.390625 -0.09375,0.4375 0,0.171875 0.140625,0.265625 0.296875,0.265625 0.125,0 0.296875,-0.078125 0.375,-0.28125 C 1.46875,-0.203125 1.796875,-1.5625 1.84375,-1.75 c 0.078125,-0.328125 0.265625,-1.015625 0.3125,-1.296875 0.046875,-0.125 0.328125,-0.59375 0.5625,-0.8125 0.078125,-0.0625 0.375,-0.328125 0.796875,-0.328125 0.265625,0 0.40625,0.125 0.421875,0.125 -0.296875,0.046875 -0.515625,0.28125 -0.515625,0.546875 0,0.15625 0.109375,0.34375 0.375,0.34375 0.265625,0 0.546875,-0.234375 0.546875,-0.59375 0,-0.34375 -0.3125,-0.640625 -0.828125,-0.640625 C 2.875,-4.40625 2.4375,-3.921875 2.25,-3.640625 2.15625,-4.09375 1.796875,-4.40625 1.328125,-4.40625 0.875,-4.40625 0.6875,-4.015625 0.59375,-3.84375 0.421875,-3.5 0.296875,-2.90625 0.296875,-2.875 c 0,0.109375 0.09375,0.109375 0.109375,0.109375 0.109375,0 0.109375,-0.015625 0.171875,-0.234375 0.171875,-0.703125 0.375,-1.1875 0.734375,-1.1875 0.15625,0 0.296875,0.078125 0.296875,0.453125 0,0.21875 -0.03125,0.328125 -0.15625,0.84375 z m 0,0"
                 id="id-da058b81-5ed5-4268-b351-ab65362eeaa2" />
            </g>
          </g>
          <g
             style="fill:#556b8a;fill-opacity:1;stroke:#556b8a;stroke-width:0.227478;stroke-miterlimit:4;stroke-dasharray:none;stroke-opacity:1"
             id="id-9b536e3c-a121-4576-971e-f452c7b9a5fc">
            <g
               transform="translate(174.841,134.765)"
               id="g2405"
               style="fill:#556b8a;fill-opacity:1;stroke:#556b8a;stroke-width:0.227478;stroke-miterlimit:4;stroke-dasharray:none;stroke-opacity:1">
              <path
                 style="fill:#556b8a;fill-opacity:1;stroke:#556b8a;stroke-width:0.227478;stroke-miterlimit:4;stroke-dasharray:none;stroke-opacity:1"
                 d="M 0.40625,-2.53125 C 0.796875,-3.671875 1.890625,-3.6875 2,-3.6875 c 1.5,0 1.609375,1.75 1.609375,2.53125 0,0.609375 -0.046875,0.78125 -0.125,0.984375 -0.21875,0.71875 -0.515625,1.875 -0.515625,2.140625 0,0.109375 0.046875,0.171875 0.125,0.171875 0.140625,0 0.21875,-0.21875 0.328125,-0.59375 C 3.65625,0.703125 3.75,0.140625 3.78125,-0.171875 c 0.03125,-0.125 0.046875,-0.25 0.09375,-0.390625 0.3125,-0.984375 0.953125,-2.46875 1.34375,-3.25 0.078125,-0.125 0.1875,-0.34375 0.1875,-0.390625 0,-0.09375 -0.09375,-0.09375 -0.109375,-0.09375 -0.03125,0 -0.09375,0 -0.125,0.0625 C 4.65625,-3.28125 4.25,-2.28125 3.859375,-1.28125 3.84375,-1.578125 3.84375,-2.34375 3.453125,-3.3125 3.203125,-3.921875 2.8125,-4.40625 2.125,-4.40625 c -1.25,0 -1.953125,1.515625 -1.953125,1.828125 0,0.09375 0.09375,0.09375 0.203125,0.09375 z m 0,0"
                 id="id-c8681770-c23b-420f-9638-cb3c2cf3e742" />
            </g>
          </g>
        </g>
      </g>
    </g>
  </g>
</svg>
